<?xml version="1.0" encoding="UTF-8"?>
<svg version="1.1" xmlns="http://www.w3.org/2000/svg" width="1200" height="1200">
<path d="M0 0 C7.07361498 6.35510418 12.17808126 14.5767269 14 24 C13.90176873 25.58656306 13.7414707 27.16993828 13.53515625 28.74609375 C12.35625501 38.77338304 12.35625501 38.77338304 15.30810547 48.10693359 C18.91582793 51.97764306 23.27156377 54.78460898 27.7421875 57.56738281 C31.31922358 59.8370679 34.63723207 62.42849617 38 65 C39.32895036 65.98762098 40.65837962 66.97459785 41.98828125 67.9609375 C46.83850593 71.59890226 51.51922447 75.43682048 56.20654297 79.28076172 C61.32601063 83.47330978 66.53325725 87.52846638 71.79296875 91.54296875 C76.98430911 95.5079328 82.10329566 99.56587334 87.23388672 103.60888672 C90.15371048 105.90874237 93.07701893 108.20415945 96 110.5 C97.16668361 111.4166451 98.33335027 112.33331177 99.5 113.25 C100.36625 113.930625 100.36625 113.930625 101.25 114.625 C106.5 118.75 106.5 118.75 108.24902344 120.12426758 C109.41890016 121.04343313 110.58882223 121.96254095 111.75878906 122.8815918 C114.62671157 125.13456094 117.4939099 127.38843723 120.359375 129.64453125 C126.88985886 134.78426392 133.43749359 139.90120342 140 145 C147.12329278 150.53450443 154.22696692 156.0930816 161.31445312 161.67333984 C164.20808827 163.95086206 167.10419323 166.22524007 170 168.5 C171.16667796 169.4166523 172.33334464 170.33331895 173.5 171.25 C174.0775 171.70375 174.655 172.1575 175.25 172.625 C222.5 209.75 222.5 209.75 224.25170898 211.12646484 C225.41252076 212.03845019 226.57348956 212.95023572 227.73461914 213.86181641 C230.74221742 216.22345068 233.74659413 218.5890231 236.74609375 220.9609375 C237.36419922 221.44884766 237.98230469 221.93675781 238.61914062 222.43945312 C239.78684125 223.36132204 240.95359156 224.28439667 242.11914062 225.20898438 C243.16546301 226.03423504 244.21714699 226.8527566 245.27532858 227.66274482 C246.38774967 228.52528064 247.48448258 229.40863091 248.56049496 230.31618041 C252.96278416 233.82894991 256.57529881 234.72109968 262.20677185 234.63923645 C263.00304993 234.64759018 263.799328 234.65594391 264.61973572 234.66455078 C267.28136364 234.68645038 269.94160456 234.67284672 272.60327148 234.65942383 C274.54652211 234.66791917 276.4897642 234.67860067 278.43299198 234.69128704 C283.62894416 234.71918928 288.82448082 234.71723675 294.02048492 234.70903778 C298.89922085 234.70588055 303.77768028 234.72973026 308.65637207 234.75134277 C322.91668358 234.79881998 337.1771126 234.80302511 351.4375 234.8125 C383.303125 234.874375 415.16875 234.93625 448 235 C448 357.1 448 479.2 448 605 C134.5 605 -179 605 -502 605 C-502 482.9 -502 360.8 -502 235 C-405.8125 235.125 -405.8125 235.125 -375.47973633 235.24267578 C-366.47998613 235.22951266 -366.47998613 235.22951266 -357.48027039 235.20309448 C-353.48207283 235.19171234 -349.48505134 235.20821698 -345.48698425 235.24191284 C-340.37545606 235.28406562 -335.26607678 235.27772158 -330.15455759 235.2373445 C-328.28601 235.23064297 -326.41730583 235.24049629 -324.54897082 235.26946664 C-311.46186714 235.45967699 -304.46429833 233.07757886 -295 224 C-293.73439239 222.98319049 -292.45698801 221.98057998 -291.16015625 221.00390625 C-290.13792969 220.19824219 -289.11570312 219.39257812 -288.0625 218.5625 C-286.8867337 217.63669976 -285.71095199 216.71091909 -284.53515625 215.78515625 C-283.95137207 215.32512207 -283.36758789 214.86508789 -282.76611328 214.39111328 C-279.84628958 212.09125768 -276.92300912 209.79580474 -274 207.5 C-270.54570963 204.78663406 -267.09183949 202.07274644 -263.640625 199.35546875 C-256.34109862 193.61047113 -249.016951 187.89796383 -241.68164062 182.19873047 C-235.33216972 177.26341069 -229.00408164 172.30149252 -222.68554688 167.32666016 C-219.79191173 165.04913794 -216.89580677 162.77475993 -214 160.5 C-212.83332204 159.5833477 -211.66665536 158.66668105 -210.5 157.75 C-198.83333333 148.58333333 -187.16666667 139.41666667 -175.5 130.25 C-174.92282227 129.7964917 -174.34564453 129.3429834 -173.75097656 128.87573242 C-172.58109984 127.95656687 -171.41117777 127.03745905 -170.24121094 126.1184082 C-167.37328843 123.86543906 -164.5060901 121.61156277 -161.640625 119.35546875 C-154.34109862 113.61047113 -147.016951 107.89796383 -139.68164062 102.19873047 C-133.33216972 97.26341069 -127.00408164 92.30149252 -120.68554688 87.32666016 C-117.79191173 85.04913794 -114.89580677 82.77475993 -112 80.5 C-110.83332204 79.5833477 -109.66665536 78.66668105 -108.5 77.75 C-106.16666667 75.91666667 -103.83333333 74.08333333 -101.5 72.25 C-100.92209717 71.79592773 -100.34419434 71.34185547 -99.7487793 70.87402344 C-98.58620425 69.96058321 -97.42360672 69.04717158 -96.26098633 68.13378906 C-93.28152964 65.79299623 -90.30250713 63.45165419 -87.32421875 61.109375 C-86.71980957 60.63588623 -86.11540039 60.16239746 -85.49267578 59.67456055 C-84.29787167 58.73167686 -83.10987892 57.78009138 -81.92919922 56.81958008 C-79.3724716 54.75481221 -77.06212085 53.03177688 -74.12109375 51.52734375 C-71.09545578 49.90325326 -69.73379777 49.00132616 -68 46 C-67.26757698 40.47526766 -67.70133939 34.89749145 -67.92578125 29.34765625 C-68.12790067 23.17178516 -67.02558235 18.40282563 -64 13 C-63.56429688 12.20722656 -63.12859375 11.41445313 -62.6796875 10.59765625 C-56.84313384 1.01358863 -48.83638443 -4.64262606 -38.375 -8.25 C-24.48341087 -11.28536692 -11.30131098 -8.45286272 0 0 Z M-60.3515625 64.38671875 C-61.02993164 64.90645264 -61.70830078 65.42618652 -62.40722656 65.96166992 C-63.1390918 66.53119385 -63.87095703 67.10071777 -64.625 67.6875 C-65.38264648 68.27184814 -66.14029297 68.85619629 -66.92089844 69.45825195 C-72.77207119 73.99236434 -78.52694704 78.63893288 -84.25390625 83.32836914 C-89.36354012 87.50650664 -94.56209811 91.55071932 -99.80859375 95.5546875 C-103.1263102 98.08858707 -106.40891466 100.66576919 -109.6875 103.25 C-115.10866771 107.5211767 -120.54949115 111.7663329 -126 116 C-133.12337349 121.53439981 -140.22696763 127.09308215 -147.31445312 132.67333984 C-150.20808827 134.95086206 -153.10419323 137.22524007 -156 139.5 C-157.16667796 140.4166523 -158.33334464 141.33331895 -159.5 142.25 C-175.83333333 155.08333333 -192.16666667 167.91666667 -208.5 180.75 C-209.07717773 181.2035083 -209.65435547 181.6570166 -210.24902344 182.12426758 C-211.41890016 183.04343313 -212.58882223 183.96254095 -213.75878906 184.8815918 C-216.62671157 187.13456094 -219.4939099 189.38843723 -222.359375 191.64453125 C-229.6572815 197.38825396 -236.97877243 203.10084038 -244.31396484 208.796875 C-249.58218577 212.89000716 -254.82804293 217.0104347 -260.06298828 221.14599609 C-264.92388776 224.97192966 -269.87984956 228.66119511 -274.8671875 232.3203125 C-275.57101562 232.87460937 -276.27484375 233.42890625 -277 234 C-277 234.33 -277 234.66 -277 235 C-112 235 53 235 223 235 C220.43704364 232.43704364 218.28296839 230.33962356 215.453125 228.22265625 C214.44523926 227.46239136 214.44523926 227.46239136 213.41699219 226.68676758 C212.70188477 226.15075928 211.98677734 225.61475098 211.25 225.0625 C205.3277901 220.58260188 199.49283639 216.02016805 193.75 211.3125 C187.97957511 206.58581213 182.1362057 201.98250472 176.20703125 197.45703125 C172.80145803 194.85597364 169.4296385 192.21303758 166.0625 189.5625 C165.47807129 189.10254639 164.89364258 188.64259277 164.29150391 188.16870117 C162.52732315 186.7795729 160.7636311 185.38982602 159 184 C151.3518218 177.97603763 143.68791823 171.9731951 136 166 C128.87670722 160.46549557 121.77303308 154.9069184 114.68554688 149.32666016 C111.79191173 147.04913794 108.89580677 144.77475993 106 142.5 C104.83332204 141.5833477 103.66665536 140.66668105 102.5 139.75 C101.63375 139.069375 101.63375 139.069375 100.75 138.375 C53.5 101.25 53.5 101.25 51.75097656 99.87573242 C50.58109984 98.95656687 49.41117777 98.03745905 48.24121094 97.1184082 C45.37328843 94.86543906 42.5060901 92.61156277 39.640625 90.35546875 C32.98256452 85.11506122 26.30988474 79.89365304 19.625 74.6875 C18.88797852 74.11281982 18.15095703 73.53813965 17.39160156 72.94604492 C12.63336196 69.24429762 7.83516508 65.6006722 3 62 C-0.95571198 63.94396181 -4.63431137 66.22213879 -8.3671875 68.5625 C-17.06262968 73.31015982 -27.86013102 74.16134569 -37.4453125 71.8671875 C-43.88469214 69.68134303 -50.22041999 66.89651163 -55 62 C-57.59075313 62 -58.31158624 62.81605209 -60.3515625 64.38671875 Z " fill="#414041" transform="translate(627,302)"/>
<path d="M0 0 C0.33 0 0.66 0 1 0 C1 16.17 1 32.34 1 49 C22.45 49 43.9 49 66 49 C62.64751958 59.05744125 62.64751958 59.05744125 60.3125 63.5 C56.36509301 71.24585523 52.70174864 79.13378413 49 87 C95.53 87.495 95.53 87.495 143 88 C143.66 86.02 144.32 84.04 145 82 C145.6941796 80.40080392 146.41791582 78.81408412 147.171875 77.2421875 C147.58953125 76.36820313 148.0071875 75.49421875 148.4375 74.59375 C148.870625 73.6965625 149.30375 72.799375 149.75 71.875 C150.16765625 71.00101563 150.5853125 70.12703125 151.015625 69.2265625 C154.26812695 62.44390599 157.63506992 55.72986015 161 49 C190.7 49 220.4 49 251 49 C246.49843913 60.25390219 246.49843913 60.25390219 244.5625 64.2890625 C243.93214844 65.60777344 243.93214844 65.60777344 243.2890625 66.953125 C242.86367188 67.83484375 242.43828125 68.7165625 242 69.625 C241.57460938 70.51445313 241.14921875 71.40390625 240.7109375 72.3203125 C238.19177231 77.57501291 235.60679216 82.78641567 233 88 C264.02 87.67 295.04 87.34 327 87 C332.02063473 76.95873055 336.9791373 66.92762711 341.74804688 56.77148438 C342.15990234 55.89943359 342.57175781 55.02738281 342.99609375 54.12890625 C343.35888428 53.35619385 343.7216748 52.58348145 344.09545898 51.78735352 C345 50 345 50 346 49 C348.76938966 48.90482197 351.51377159 48.87445735 354.28344727 48.88647461 C355.58576797 48.88625557 355.58576797 48.88625557 356.91439819 48.8860321 C359.79842586 48.88673154 362.6823898 48.89452537 365.56640625 48.90234375 C367.56037867 48.90420782 369.55435155 48.90563177 371.54832458 48.90663147 C376.80745702 48.91045752 382.06656203 48.92028855 387.32568359 48.93133545 C392.68782175 48.9415477 398.04996431 48.94612869 403.41210938 48.95117188 C413.94141833 48.96191074 424.47070689 48.9789882 435 49 C434.53373093 50.42875859 434.06484619 51.85666373 433.59487915 53.28421021 C433.33405359 54.07946672 433.07322803 54.87472324 432.80449867 55.69407845 C431.71908506 58.80518197 430.34923952 61.72305767 428.8984375 64.6796875 C428.32609375 65.8553125 427.75375 67.0309375 427.1640625 68.2421875 C426.56800731 69.45327219 425.97165016 70.66420831 425.375 71.875 C424.19270233 74.28780062 423.01404506 76.70233355 421.8359375 79.1171875 C421.31563965 80.17534668 420.7953418 81.23350586 420.25927734 82.32373047 C418.93149255 85.00923218 418.93149255 85.00923218 418 88 C449.02 88 480.04 88 512 88 C512.66 86.02 513.32 84.04 514 82 C514.94473925 79.89109603 515.92484067 77.79779436 516.93359375 75.71875 C517.7834082 73.96111328 517.7834082 73.96111328 518.65039062 72.16796875 C519.24604312 70.94528783 519.84174665 69.72263178 520.4375 68.5 C521.02962244 67.27750139 521.62142205 66.05484635 522.21289062 64.83203125 C524.77814714 59.53845992 527.36923011 54.26153978 530 49 C559.37 49 588.74 49 619 49 C618.12290086 53.38549571 617.03828547 56.40866424 615.1640625 60.40234375 C614.88404388 61.00252823 614.60402527 61.60271271 614.31552124 62.22108459 C613.42376832 64.12898829 612.52443094 66.03320591 611.625 67.9375 C611.0281627 69.21266461 610.43180394 70.48805331 609.8359375 71.76367188 C607.28608208 77.20951473 604.6896119 82.6207762 602 88 C633.02 87.67 664.04 87.34 696 87 C705.45469446 68.20086544 705.45469446 68.20086544 714 49 C743.7 49 773.4 49 804 49 C802.59071658 53.22785026 801.2114138 56.85407522 799.28515625 60.80859375 C798.76373047 61.88560547 798.24230469 62.96261719 797.70507812 64.07226562 C797.16302734 65.18279297 796.62097656 66.29332031 796.0625 67.4375 C794.98951509 69.64386537 793.91786318 71.85087958 792.84765625 74.05859375 C792.37336182 75.03111084 791.89906738 76.00362793 791.41040039 77.00561523 C789.85874406 80.29989685 788.43442502 83.65300828 787 87 C833.53 87.495 833.53 87.495 881 88 C881.66 86.02 882.32 84.04 883 82 C884.07323178 79.57502323 885.16874556 77.17801074 886.30859375 74.78515625 C886.79302696 73.75791191 886.79302696 73.75791191 887.2872467 72.70991516 C888.3340195 70.49252713 889.38565258 68.27748469 890.4375 66.0625 C891.15909806 64.53673642 891.88045076 63.01085677 892.6015625 61.48486328 C898.36200949 49.30469068 904.1607038 37.14256748 910 25 C910.33 25 910.66 25 911 25 C911 50.74 911 76.48 911 103 C597.5 103 284 103 -39 103 C-39 85.38985609 -38.83678875 77.43988499 -31.0625 63.3125 C-30.26602257 61.78500596 -29.47415716 60.25509881 -28.68676758 58.72290039 C-27.15841761 55.7596592 -25.61098244 52.8081287 -24.04199219 49.86621094 C-21.60998081 45.29076949 -19.36580982 40.63839729 -17.1875 35.9375 C-16.86144775 35.24648193 -16.53539551 34.55546387 -16.19946289 33.84350586 C-14.04839597 29.28252995 -11.93951775 24.70234281 -9.83203125 20.12109375 C-9.28071533 18.92299072 -8.72939941 17.7248877 -8.16137695 16.49047852 C-7.07017477 14.11581089 -5.98139294 11.74002928 -4.89526367 9.36303711 C-4.40388916 8.29190674 -3.91251465 7.22077637 -3.40625 6.1171875 C-2.96603516 5.15409668 -2.52582031 4.19100586 -2.07226562 3.19873047 C-1 1 -1 1 0 0 Z " fill="#BE9702" transform="translate(164,804)"/>
<path d="M0 0 C7.07361498 6.35510418 12.17808126 14.5767269 14 24 C13.90176873 25.58656306 13.7414707 27.16993828 13.53515625 28.74609375 C12.35625501 38.77338304 12.35625501 38.77338304 15.30810547 48.10693359 C18.91582793 51.97764306 23.27156377 54.78460898 27.7421875 57.56738281 C31.31922358 59.8370679 34.63723207 62.42849617 38 65 C39.32895036 65.98762098 40.65837962 66.97459785 41.98828125 67.9609375 C46.83850593 71.59890226 51.51922447 75.43682048 56.20654297 79.28076172 C61.32601063 83.47330978 66.53325725 87.52846638 71.79296875 91.54296875 C76.98430911 95.5079328 82.10329566 99.56587334 87.23388672 103.60888672 C90.15371048 105.90874237 93.07701893 108.20415945 96 110.5 C97.16668361 111.4166451 98.33335027 112.33331177 99.5 113.25 C100.36625 113.930625 100.36625 113.930625 101.25 114.625 C106.5 118.75 106.5 118.75 108.24902344 120.12426758 C109.41890016 121.04343313 110.58882223 121.96254095 111.75878906 122.8815918 C114.62671157 125.13456094 117.4939099 127.38843723 120.359375 129.64453125 C126.88985886 134.78426392 133.43749359 139.90120342 140 145 C147.12329278 150.53450443 154.22696692 156.0930816 161.31445312 161.67333984 C164.20808827 163.95086206 167.10419323 166.22524007 170 168.5 C171.16667796 169.4166523 172.33334464 170.33331895 173.5 171.25 C174.0775 171.70375 174.655 172.1575 175.25 172.625 C222.5 209.75 222.5 209.75 224.25170898 211.12646484 C225.41252076 212.03845019 226.57348956 212.95023572 227.73461914 213.86181641 C230.74221742 216.22345068 233.74659413 218.5890231 236.74609375 220.9609375 C237.36419922 221.44884766 237.98230469 221.93675781 238.61914062 222.43945312 C239.78684125 223.36132204 240.95359156 224.28439667 242.11914062 225.20898438 C243.16879401 226.03686226 244.2257287 226.85562955 245.29122925 227.66300964 C246.8918351 228.91536874 248.41776069 230.26155473 249.93603516 231.61254883 C254.9555007 235.16008596 260.33287458 234.7278449 266.27734375 234.70703125 C267.4438295 234.72215256 268.61031525 234.73727386 269.81214905 234.75285339 C273.52079678 234.79568079 277.22862975 234.80456427 280.9375 234.8125 C283.45900596 234.83564793 285.9804926 234.86101387 288.50195312 234.88867188 C294.66797653 234.95147562 300.83368218 234.98644892 307 235 C305.86659427 238.52126052 304.67402861 241.91066903 303.08203125 245.25 C302.71400391 246.02472656 302.34597656 246.79945313 301.96679688 247.59765625 C301.58587891 248.39042969 301.20496094 249.18320312 300.8125 250 C300.27012695 251.14275391 300.27012695 251.14275391 299.71679688 252.30859375 C296.2429305 259.59115699 292.60994549 266.78010902 289 274 C259.3 274 229.6 274 199 274 C202.54253008 265.4979278 206.16241283 257.1405476 210.12695312 248.84277344 C210.98074157 247.0406495 211.81098052 245.22742828 212.640625 243.4140625 C213.15109375 242.32867188 213.6615625 241.24328125 214.1875 240.125 C214.63480469 239.15820312 215.08210937 238.19140625 215.54296875 237.1953125 C217 235 217 235 219.09106445 234.36279297 C219.72101318 234.24307129 220.35096191 234.12334961 221 234 C212.9327028 227.36592383 204.82589694 220.80787787 196.5 214.5 C190.1404147 209.68096251 183.9153838 204.72404154 177.74267578 199.66845703 C172.63376921 195.4918974 167.43666816 191.44833913 162.19140625 187.4453125 C158.8736898 184.91141293 155.59108534 182.33423081 152.3125 179.75 C146.89133229 175.4788233 141.45050885 171.2336671 136 167 C128.87662651 161.46560019 121.77303237 155.90691785 114.68554688 150.32666016 C111.79191173 148.04913794 108.89580677 145.77475993 106 143.5 C104.83332204 142.5833477 103.66665536 141.66668105 102.5 140.75 C101.9225 140.29625 101.345 139.8425 100.75 139.375 C53.5 102.25 53.5 102.25 51.75097656 100.87573242 C50.58109984 99.95656687 49.41117777 99.03745905 48.24121094 98.1184082 C45.37328843 95.86543906 42.5060901 93.61156277 39.640625 91.35546875 C32.98256452 86.11506122 26.30988474 80.89365304 19.625 75.6875 C18.88797852 75.11281982 18.15095703 74.53813965 17.39160156 73.94604492 C12.63336196 70.24429762 7.83516508 66.6006722 3 63 C-0.95571198 64.94396181 -4.63431137 67.22213879 -8.3671875 69.5625 C-17.06262968 74.31015982 -27.86013102 75.16134569 -37.4453125 72.8671875 C-43.68663288 70.74857416 -50.56521102 68.0361163 -55 63 C-60.06281096 64.55778799 -63.52093287 67.65177224 -67.5 71 C-68.93377836 72.18624778 -70.36868835 73.37112904 -71.8046875 74.5546875 C-72.51463867 75.14088867 -73.22458984 75.72708984 -73.95605469 76.33105469 C-76.80165804 78.65457888 -79.70249995 80.89943522 -82.625 83.125 C-87.08791756 86.53134521 -91.52597938 89.96484772 -95.9375 93.4375 C-96.52192871 93.89745361 -97.10635742 94.35740723 -97.70849609 94.83129883 C-99.47267685 96.2204271 -101.2363689 97.61017398 -103 99 C-111.41702036 105.62952832 -119.85761347 112.22761923 -128.31835938 118.80126953 C-134.66783028 123.73658931 -140.99591836 128.69850748 -147.31445312 133.67333984 C-150.20808827 135.95086206 -153.10419323 138.22524007 -156 140.5 C-157.16667796 141.4166523 -158.33334464 142.33331895 -159.5 143.25 C-175.83333333 156.08333333 -192.16666667 168.91666667 -208.5 181.75 C-209.07717773 182.2035083 -209.65435547 182.6570166 -210.24902344 183.12426758 C-211.41890016 184.04343313 -212.58882223 184.96254095 -213.75878906 185.8815918 C-216.62671157 188.13456094 -219.4939099 190.38843723 -222.359375 192.64453125 C-228.88985917 197.78426416 -235.43752954 202.9011568 -242 208 C-253.05956468 216.59395983 -264.06266412 225.25013129 -275 234 C-265.43 234.33 -255.86 234.66 -246 235 C-247.299375 237.908125 -248.59875 240.81625 -249.9375 243.8125 C-250.32542725 244.68366455 -250.71335449 245.5548291 -251.11303711 246.45239258 C-255.26485389 255.70888613 -259.65318685 264.82339447 -264 274 C-293.7 274 -323.4 274 -354 274 C-352.53951468 269.61854405 -351.06175298 265.83116803 -349.06640625 261.71875 C-348.2165918 259.96111328 -348.2165918 259.96111328 -347.34960938 258.16796875 C-346.75395688 256.94528783 -346.15825335 255.72263178 -345.5625 254.5 C-344.97037756 253.27750139 -344.37857795 252.05484635 -343.78710938 250.83203125 C-341.22206625 245.53890026 -338.63796538 240.25722528 -336 235 C-335.21987549 235.0220752 -334.43975098 235.04415039 -333.63598633 235.06689453 C-316.13755468 236.10562043 -316.13755468 236.10562043 -300.625 229.625 C-299.20411839 228.25102508 -297.78236376 226.87594519 -296.42626953 225.43798828 C-293.87145379 222.86218125 -290.94463771 220.75537955 -288.0625 218.5625 C-286.88492202 217.63900524 -285.70913885 216.71321731 -284.53515625 215.78515625 C-281.02614683 213.01998321 -277.51343816 210.25954253 -274 207.5 C-270.54570963 204.78663406 -267.09183949 202.07274644 -263.640625 199.35546875 C-256.34109862 193.61047113 -249.016951 187.89796383 -241.68164062 182.19873047 C-235.33216972 177.26341069 -229.00408164 172.30149252 -222.68554688 167.32666016 C-219.79191173 165.04913794 -216.89580677 162.77475993 -214 160.5 C-212.83332204 159.5833477 -211.66665536 158.66668105 -210.5 157.75 C-198.83333333 148.58333333 -187.16666667 139.41666667 -175.5 130.25 C-174.92282227 129.7964917 -174.34564453 129.3429834 -173.75097656 128.87573242 C-172.58109984 127.95656687 -171.41117777 127.03745905 -170.24121094 126.1184082 C-167.37328843 123.86543906 -164.5060901 121.61156277 -161.640625 119.35546875 C-154.34109862 113.61047113 -147.016951 107.89796383 -139.68164062 102.19873047 C-133.33216972 97.26341069 -127.00408164 92.30149252 -120.68554688 87.32666016 C-117.79191173 85.04913794 -114.89580677 82.77475993 -112 80.5 C-110.83332204 79.5833477 -109.66665536 78.66668105 -108.5 77.75 C-106.16666667 75.91666667 -103.83333333 74.08333333 -101.5 72.25 C-100.92209717 71.79592773 -100.34419434 71.34185547 -99.7487793 70.87402344 C-98.58620425 69.96058321 -97.42360672 69.04717158 -96.26098633 68.13378906 C-93.28152964 65.79299623 -90.30250713 63.45165419 -87.32421875 61.109375 C-86.71980957 60.63588623 -86.11540039 60.16239746 -85.49267578 59.67456055 C-84.29787167 58.73167686 -83.10987892 57.78009138 -81.92919922 56.81958008 C-79.3724716 54.75481221 -77.06212085 53.03177688 -74.12109375 51.52734375 C-71.09545578 49.90325326 -69.73379777 49.00132616 -68 46 C-67.26757698 40.47526766 -67.70133939 34.89749145 -67.92578125 29.34765625 C-68.12790067 23.17178516 -67.02558235 18.40282563 -64 13 C-63.56429688 12.20722656 -63.12859375 11.41445313 -62.6796875 10.59765625 C-56.84313384 1.01358863 -48.83638443 -4.64262606 -38.375 -8.25 C-24.48341087 -11.28536692 -11.30131098 -8.45286272 0 0 Z " fill="#939598" transform="translate(627,302)"/>
<path d="M0 0 C0.33 0 0.66 0 1 0 C1.35239885 25.41045583 1.61588055 50.82053878 1.77718258 76.23295689 C1.85411226 88.03594329 1.9587419 99.83740049 2.1315918 111.6394043 C2.28240095 121.94151412 2.37817478 132.24251538 2.41132742 142.54569858 C2.43066991 147.98799116 2.47519774 153.42711614 2.58595085 158.86837959 C3.09453298 184.85580532 1.46317961 204.63084919 -12.27387619 227.11387634 C-14.56992164 230.95292373 -16.43734398 234.9232415 -18.23828125 239.01171875 C-18.76744141 240.15705078 -19.29660156 241.30238281 -19.84179688 242.48242188 C-20.32712891 243.54009766 -20.81246094 244.59777344 -21.3125 245.6875 C-22.3706256 247.98328875 -23.42919775 250.27887174 -24.48828125 252.57421875 C-24.92696533 253.52901123 -25.36564941 254.48380371 -25.81762695 255.4675293 C-26.84230673 257.66224401 -27.91678799 259.83357598 -29 262 C-60.35 262 -91.7 262 -124 262 C-115.95490368 242.46190893 -115.95490368 242.46190893 -112.75 236.3125 C-112.42515625 235.67634766 -112.1003125 235.04019531 -111.765625 234.38476562 C-110.84771666 232.587812 -109.92402592 230.79381553 -109 229 C-108.01 227.02 -107.02 225.04 -106 223 C-83.89 223 -61.78 223 -39 223 C-39.33 221.02 -39.66 219.04 -40 217 C-40.10439861 215.14472006 -40.16776416 213.28676726 -40.1942749 211.42874146 C-40.21154633 210.34450897 -40.22881775 209.26027649 -40.24661255 208.14318848 C-40.26029877 206.96816772 -40.27398499 205.79314697 -40.28808594 204.58251953 C-40.30590118 203.33272308 -40.32371643 202.08292664 -40.34207153 200.79525757 C-40.49688657 189.23697418 -40.58560713 177.67781812 -40.65206528 166.11871529 C-40.70202866 157.60529242 -40.78751663 149.0938299 -40.92068648 140.58129418 C-41.01157936 134.56305626 -41.05865956 128.54534506 -41.07564378 122.52645195 C-41.08695914 118.94987183 -41.11605754 115.37580013 -41.19359589 111.79999161 C-41.57320246 93.5091045 -39.3067105 79.51150672 -30.31027603 63.37503624 C-28.49051077 60.0764882 -26.91381375 56.69391395 -25.328125 53.27734375 C-24.30425457 51.1630097 -23.27828572 49.04969024 -22.25 46.9375 C-21.14517167 44.65526811 -20.04099866 42.37271886 -18.9375 40.08984375 C-18.42703125 39.03394043 -17.9165625 37.97803711 -17.390625 36.89013672 C-15.1166255 32.16408229 -12.90368865 27.41111126 -10.69921875 22.65234375 C-7.18632182 15.0766489 -3.58155797 7.54340427 0 0 Z " fill="#252022" transform="translate(1074,630)"/>
<path d="M0 0 C2.38857443 3.70917028 2.29652876 7.34554457 2.29434204 11.61099243 C2.30169542 12.38166845 2.30904879 13.15234446 2.316625 13.9463743 C2.33866815 16.53149659 2.3463812 19.116458 2.35400391 21.70166016 C2.36653649 23.55479948 2.37983039 25.40793379 2.39382935 27.26106262 C2.43590885 33.35369368 2.45664679 39.44632564 2.4765625 45.5390625 C2.48466032 47.64116849 2.49289424 49.74327395 2.50126266 51.84537888 C2.53938054 61.73175101 2.56782897 71.61809333 2.5844866 81.50452483 C2.60398082 92.88493959 2.65647937 104.26457106 2.73748839 115.64471018 C2.79804944 124.45774443 2.82744751 133.2705559 2.83404863 142.083794 C2.83872637 147.33844918 2.85633482 152.59226846 2.90697098 157.84669876 C2.95395862 162.80305475 2.96183274 167.75803752 2.94144821 172.71455956 C2.94046714 174.51956344 2.95281936 176.3246398 2.9805603 178.12943077 C3.16294737 190.71463636 0.74273497 200.03379633 -5.07395577 211.21367145 C-6.24714523 213.47674028 -7.30992212 215.78462415 -8.36328125 218.10546875 C-9.01063484 219.46728261 -9.66033331 220.82798455 -10.3125 222.1875 C-10.67947998 222.95755371 -11.04645996 223.72760742 -11.42456055 224.52099609 C-12.61400791 227.01513483 -13.80692387 229.50759534 -15 232 C-15.86473816 233.811124 -16.72931685 235.62232415 -17.59375 237.43359375 C-24.37428364 251.63271342 -31.18718283 265.81634981 -38 280 C-38.33 280 -38.66 280 -39 280 C-39.32874571 254.55493325 -39.57474581 229.11019011 -39.72537041 203.66341877 C-39.79720417 191.84479091 -39.89492504 180.02749129 -40.05615234 168.2097168 C-40.19680287 157.89517589 -40.28627284 147.58159784 -40.31723893 137.26612443 C-40.33530849 131.81625494 -40.37698487 126.36913697 -40.48022079 120.92016029 C-40.93472164 95.96182309 -40.10372012 76.50894804 -26.73411942 54.89928246 C-23.96457382 50.26886607 -21.75143827 45.39695917 -19.5 40.5 C-18.63160048 38.67449715 -17.76082053 36.85012307 -16.88671875 35.02734375 C-16.20875244 33.60977783 -16.20875244 33.60977783 -15.51708984 32.16357422 C-10.36994595 21.43027996 -5.18130293 10.7168343 0 0 Z " fill="#252022" transform="translate(164,605)"/>
<path d="M0 0 C1.22244667 0.00333092 1.22244667 0.00333092 2.46958923 0.00672913 C3.85090782 0.00684242 3.85090782 0.00684242 5.26013184 0.00695801 C6.2611644 0.01211929 7.26219696 0.01728058 8.29356384 0.02259827 C9.31316696 0.02401321 10.33277008 0.02542816 11.38327026 0.02688599 C14.65417867 0.03250355 17.92501972 0.04505902 21.19590759 0.05775452 C23.40749515 0.06276725 25.61908377 0.06733055 27.83067322 0.07142639 C33.26494116 0.08247868 38.69916957 0.09923389 44.13340759 0.12025452 C44.34337193 11.91745731 44.50257088 23.71420453 44.59971714 35.51290607 C44.64637998 40.99362218 44.70950894 46.47304575 44.81236267 51.95301819 C44.91127302 57.25702502 44.96419653 62.55980127 44.98730278 67.86466026 C45.00373498 69.87269111 45.03581498 71.88066644 45.0849781 73.88816261 C45.41341828 87.87565908 43.10930231 97.86242037 36.2445507 110.09105492 C34.54233895 113.19968006 33.1027783 116.40371473 31.64122009 119.63197327 C27.92494399 127.6402304 24.05928486 135.57568799 20.18955994 143.51063538 C19.00150804 145.94690302 17.81536335 148.38409217 16.62950134 150.82142639 C12.83828929 158.60827568 9.03739065 166.38910006 5.13340759 174.12025452 C4.80340759 174.12025452 4.47340759 174.12025452 4.13340759 174.12025452 C4.13340759 129.57025452 4.13340759 85.02025452 4.13340759 39.12025452 C-3.78659241 39.12025452 -11.70659241 39.12025452 -19.86659241 39.12025452 C-17.92869613 33.3065657 -16.17344645 28.33858278 -13.54627991 22.93275452 C-13.09008774 21.98988586 -13.09008774 21.98988586 -12.62467957 21.02796936 C-11.99028687 19.71942356 -11.3533 18.41213236 -10.71376038 17.10609436 C-9.73136022 15.09935331 -8.75735384 13.08869921 -7.78456116 11.07728577 C-2.48111604 0.15984497 -2.48111604 0.15984497 0 0 Z " fill="#FECA02" transform="translate(1030.8665924072266,536.8797454833984)"/>
<path d="M0 0 C23.43 0 46.86 0 71 0 C69.06210373 5.81368882 67.30685404 10.78167174 64.6796875 16.1875 C64.37555939 16.8160791 64.07143127 17.4446582 63.75808716 18.09228516 C63.12369447 19.40083095 62.48670759 20.70812216 61.84716797 22.01416016 C60.86476781 24.02090121 59.89076143 26.03155531 58.91796875 28.04296875 C54.15765311 37.84234689 54.15765311 37.84234689 53 39 C50.81360547 39.07258946 48.62499611 39.08373783 46.4375 39.0625 C44.64119141 39.04896484 44.64119141 39.04896484 42.80859375 39.03515625 C41.88175781 39.02355469 40.95492187 39.01195312 40 39 C40.09949951 39.67426025 40.19899902 40.34852051 40.30151367 41.04321289 C43.20007262 64.21430469 35.64239485 79.98629322 24.76681519 99.9624939 C20.5144073 107.78605144 16.73774996 115.81088904 12.98660278 123.88378906 C11.58291222 126.8946313 10.15018499 129.89083095 8.71484375 132.88671875 C8.01391602 134.35141602 8.01391602 134.35141602 7.29882812 135.84570312 C6.84958984 136.78349609 6.40035156 137.72128906 5.9375 138.6875 C5.45345703 139.69876953 4.96941406 140.71003906 4.47070312 141.75195312 C3.31414337 144.16813242 2.15724832 146.58415044 1 149 C0.67 149 0.34 149 0 149 C0 99.83 0 50.66 0 0 Z " fill="#FECA02" transform="translate(125,537)"/>
<path d="M0 0 C1.1538343 -0.00287018 1.1538343 -0.00287018 2.33097839 -0.00579834 C3.9521823 -0.00715368 5.57339729 -0.00350289 7.19458008 0.00488281 C9.65015636 0.01554764 12.10499377 0.00498838 14.56054688 -0.0078125 C33.09187021 -0.02526107 33.09187021 -0.02526107 39.73046875 4.015625 C45.91900617 10.56819404 46.02068154 18.06390352 46.09375 26.5546875 C46.10182175 27.45375824 46.10989349 28.35282898 46.11820984 29.27914429 C46.13201257 31.1803802 46.14275169 33.08164049 46.15063477 34.98291016 C46.16212716 36.91071936 46.18253531 38.83849743 46.2121582 40.76611328 C46.54845184 62.67592551 46.54845184 62.67592551 41.85546875 70.265625 C37.10125529 75.05798115 32.36713395 76.37451763 25.7489624 76.43022156 C24.52551117 76.43189079 24.52551117 76.43189079 23.27734375 76.43359375 C22.43254456 76.43692215 21.58774536 76.44025055 20.71734619 76.44367981 C18.9285944 76.44874263 17.13983317 76.45108833 15.35107422 76.45092773 C12.6297217 76.45310559 9.90878033 76.47124411 7.1875 76.49023438 C5.44661596 76.49317025 3.70573001 76.49515375 1.96484375 76.49609375 C1.15730652 76.50327927 0.34976929 76.51046478 -0.48223877 76.51786804 C-6.4977429 76.49385099 -11.49172029 75.74626368 -16.83203125 72.765625 C-22.72406896 66.39585451 -23.7470055 58.33827602 -23.640625 49.98046875 C-23.64208023 49.03933731 -23.64353546 48.09820587 -23.64503479 47.1285553 C-23.64338704 45.15460082 -23.63195326 43.18063196 -23.61108398 41.20678711 C-23.58206832 38.20695794 -23.59051201 35.20889457 -23.60351562 32.20898438 C-23.59727827 30.27863736 -23.58888735 28.34829584 -23.578125 26.41796875 C-23.58106064 25.53334457 -23.58399628 24.6487204 -23.58702087 23.73728943 C-23.49414915 17.52867282 -22.92989203 10.65232809 -18.8344574 5.67271423 C-13.24991001 0.67484974 -7.20978625 -0.04008012 0 0 Z " fill="#F9C603" transform="translate(279.14453125,730.734375)"/>
<path d="M0 0 C1.15739182 -0.00287018 1.15739182 -0.00287018 2.33816528 -0.00579834 C3.96356535 -0.00715354 5.58897648 -0.00350374 7.21435547 0.00488281 C9.68091605 0.01556267 12.14674352 0.00498024 14.61328125 -0.0078125 C16.20052242 -0.00649022 17.78776314 -0.0039264 19.375 0 C20.10234344 -0.00404846 20.82968689 -0.00809692 21.57907104 -0.01226807 C28.26497792 0.04787963 35.53442981 0.86072276 40.8203125 5.265625 C45.10540009 11.38113526 45.39740085 17.24798763 45.31640625 24.51953125 C45.31786148 25.57921616 45.31931671 26.63890106 45.32081604 27.73069763 C45.31916329 29.96038577 45.30767239 32.19008607 45.28686523 34.41967773 C45.25787071 37.82129611 45.26627864 41.22135751 45.27929688 44.62304688 C45.27305974 46.79688253 45.264669 48.97071329 45.25390625 51.14453125 C45.25684189 52.155121 45.25977753 53.16571075 45.26280212 54.20692444 C45.17210162 61.03344292 44.31942526 65.93347465 40.1328125 71.515625 C34.36284712 75.88208529 28.25801956 76.72149159 21.26171875 76.6640625 C20.47312973 76.66693268 19.68454071 76.66980286 18.87205505 76.67276001 C17.21572139 76.67478783 15.55936307 76.66934837 13.90307617 76.65673828 C11.39251158 76.64068701 8.88356176 76.65661889 6.37304688 76.67578125 C-12.08878447 76.70159943 -12.08878447 76.70159943 -17.73974609 71.95532227 C-23.41162683 65.76973521 -23.49703842 58.84201585 -23.515625 50.93359375 C-23.5256102 49.44681877 -23.5256102 49.44681877 -23.53579712 47.93000793 C-23.54589633 45.83804166 -23.55061499 43.74604336 -23.55029297 41.65405273 C-23.55465898 38.47389906 -23.59098865 35.29514222 -23.62890625 32.11523438 C-23.63477661 30.07552554 -23.63874453 28.03581017 -23.640625 25.99609375 C-23.65499603 25.0551738 -23.66936707 24.11425385 -23.68417358 23.14482117 C-23.63330363 15.69686886 -22.11828324 9.28155221 -16.8046875 3.828125 C-11.34372329 0.57755107 -6.25539572 -0.03462539 0 0 Z " fill="#FCC802" transform="translate(887.1796875,730.734375)"/>
<path d="M0 0 C7.775625 -0.061875 15.55125 -0.12375 23.5625 -0.1875 C26.00470947 -0.21481201 28.44691895 -0.24212402 30.96313477 -0.27026367 C32.91422024 -0.27903135 34.86531123 -0.28667462 36.81640625 -0.29296875 C37.81700073 -0.30831665 38.81759521 -0.32366455 39.84851074 -0.33947754 C48.1030356 -0.34255109 54.20435019 1.38996581 60.37251282 7.13664246 C65.1037566 12.55358146 65.44594547 20.10568906 65.36328125 26.98046875 C65.36402901 28.20519646 65.36402901 28.20519646 65.36479187 29.45466614 C65.36247015 31.16470804 65.35285551 32.87475461 65.33618164 34.5847168 C65.3124631 37.1915555 65.31565094 39.79737662 65.32226562 42.40429688 C65.31669142 44.07552688 65.30958317 45.74675263 65.30078125 47.41796875 C65.30169266 48.18997116 65.30260406 48.96197357 65.30354309 49.75737 C65.21027304 56.91295209 63.47513198 62.2817758 59 68 C53.95070738 71.89216306 50.31654245 73.12968181 44.04785156 73.11352539 C43.05350098 73.11340454 42.05915039 73.11328369 41.03466797 73.11315918 C39.99713379 73.10804321 38.95959961 73.10292725 37.890625 73.09765625 C36.93140137 73.09664917 35.97217773 73.09564209 34.98388672 73.09460449 C31.40591229 73.08937849 27.82795493 73.07541722 24.25 73.0625 C12.24625 73.0315625 12.24625 73.0315625 0 73 C0 48.91 0 24.82 0 0 Z " fill="#FECA02" transform="translate(575,622)"/>
<path d="M0 0 C7.09826323 -0.10186657 14.19633619 -0.17166082 21.29516602 -0.21972656 C23.70734705 -0.23977552 26.11947989 -0.26702192 28.53149414 -0.30175781 C32.00939873 -0.35057051 35.48665772 -0.37303683 38.96484375 -0.390625 C40.03395493 -0.41127014 41.1030661 -0.43191528 42.20457458 -0.45318604 C50.05151567 -0.45550944 56.40972133 0.87001347 62.4375 6.125 C67.69925423 15.80662778 67.4873655 29.65649115 64.6875 40.09765625 C63.55617262 43.22809053 62.19390222 45.50138913 60 48 C56.75 49.375 56.75 49.375 54 50 C54.36351562 50.66644531 54.72703125 51.33289063 55.1015625 52.01953125 C56.15734491 53.95513234 57.21195248 55.89137455 58.265625 57.828125 C59.4131154 59.92668853 60.56925146 62.02054991 61.734375 64.109375 C62.27578125 65.08390625 62.8171875 66.0584375 63.375 67.0625 C63.87773438 67.96097656 64.38046875 68.85945312 64.8984375 69.78515625 C66 72 66 72 66 74 C59.4 74 52.8 74 46 74 C45.30132813 72.73542969 44.60265625 71.47085938 43.8828125 70.16796875 C42.96360923 68.50777509 42.04433468 66.84762089 41.125 65.1875 C40.66480469 64.35412109 40.20460938 63.52074219 39.73046875 62.66210938 C39.28574219 61.85966797 38.84101562 61.05722656 38.3828125 60.23046875 C37.77010498 59.12288208 37.77010498 59.12288208 37.14501953 57.99291992 C36.16513154 56.28741338 35.09107329 54.63660994 34 53 C30.65386488 52.41312216 30.65386488 52.41312216 26.875 52.3125 C25.59367188 52.24675781 24.31234375 52.18101562 22.9921875 52.11328125 C22.00476563 52.07589844 21.01734375 52.03851562 20 52 C20.00785522 52.94637329 20.00785522 52.94637329 20.01586914 53.91186523 C20.03657826 56.75373347 20.04964066 59.59558588 20.0625 62.4375 C20.07087891 63.43072266 20.07925781 64.42394531 20.08789062 65.44726562 C20.09272461 66.86362305 20.09272461 66.86362305 20.09765625 68.30859375 C20.10551147 69.62041626 20.10551147 69.62041626 20.11352539 70.95874023 C20 73 20 73 19 74 C17.66956375 74.0983721 16.33406656 74.13078592 15 74.1328125 C14.195625 74.13410156 13.39125 74.13539063 12.5625 74.13671875 C11.716875 74.13285156 10.87125 74.12898437 10 74.125 C9.154375 74.12886719 8.30875 74.13273438 7.4375 74.13671875 C6.633125 74.13542969 5.82875 74.13414062 5 74.1328125 C4.2575 74.13168457 3.515 74.13055664 2.75 74.12939453 C1 74 1 74 0 73 C-0.09439978 70.73008113 -0.11742226 68.45718033 -0.11352539 66.18530273 C-0.11367142 65.47314606 -0.11381744 64.76098938 -0.1139679 64.0272522 C-0.1132687 61.66266888 -0.10547606 59.29816339 -0.09765625 56.93359375 C-0.09579209 55.29834537 -0.09436818 53.66309643 -0.09336853 52.02784729 C-0.08954318 47.71565215 -0.07971275 43.40349048 -0.06866455 39.09130859 C-0.0584508 34.69434054 -0.05387099 30.29736711 -0.04882812 25.90039062 C-0.03809049 17.26691169 -0.02101387 8.63346 0 0 Z " fill="#F9C703" transform="translate(716,622)"/>
<path d="M0 0 C8.064375 -0.0825 16.12875 -0.165 24.4375 -0.25 C26.96591553 -0.28641602 29.49433105 -0.32283203 32.09936523 -0.36035156 C34.1274328 -0.37204572 36.15550982 -0.38223582 38.18359375 -0.390625 C39.21713989 -0.41108887 40.25068604 -0.43155273 41.31555176 -0.45263672 C49.13255727 -0.45636309 55.18239175 1.06337827 61.4375 5.875 C65.83633487 11.85741542 65.36634961 18.77303011 65.375 25.875 C65.39949219 26.92558594 65.42398438 27.97617187 65.44921875 29.05859375 C65.47362715 35.55936489 64.83842083 40.61783001 61 46 C56.8 50 56.8 50 54 50 C55.2449341 52.54425853 56.49573888 55.08534361 57.75 57.625 C58.09804688 58.33785156 58.44609375 59.05070313 58.8046875 59.78515625 C60.46140587 63.12927296 62.14543089 66.32284728 64.265625 69.3984375 C66 72 66 72 66 74 C59.07 74 52.14 74 45 74 C43.16155559 70.71109457 41.3290654 67.41911532 39.5 64.125 C38.97535156 63.18785156 38.45070313 62.25070312 37.91015625 61.28515625 C37.41386719 60.38925781 36.91757812 59.49335937 36.40625 58.5703125 C35.94541016 57.74289551 35.48457031 56.91547852 35.00976562 56.06298828 C34 54 34 54 34 52 C29.05 52 24.1 52 19 52 C19 59.26 19 66.52 19 74 C12.73 74 6.46 74 0 74 C0 49.58 0 25.16 0 0 Z " fill="#FCC902" transform="translate(540,732)"/>
<path d="M0 0 C0.33 0 0.66 0 1 0 C1 16.17 1 32.34 1 49 C22.45 49 43.9 49 66 49 C62.64751958 59.05744125 62.64751958 59.05744125 60.3125 63.5 C57.26243878 69.42386263 54.42602452 75.4307805 51.62817383 81.4765625 C49.10452803 86.89547197 49.10452803 86.89547197 48 88 C45.29161914 88.09514592 42.60881487 88.12554932 39.90014648 88.11352539 C39.05143982 88.11367142 38.20273315 88.11381744 37.32830811 88.1139679 C34.50921109 88.11326848 31.69017929 88.10547478 28.87109375 88.09765625 C26.92196183 88.09579217 24.97282945 88.09436822 23.0236969 88.09336853 C17.88293168 88.08954255 12.74219453 88.07971159 7.60144043 88.06866455 C2.35994852 88.05845215 -2.8815479 88.05387128 -8.12304688 88.04882812 C-18.41537694 88.03808939 -28.70768614 88.02101201 -39 88 C-39.15610407 82.24197231 -38.20219508 78.40490123 -35.59765625 73.328125 C-35.2447049 72.61271042 -34.89175354 71.89729584 -34.52810669 71.16020203 C-33.38532492 68.85038819 -32.22394903 66.55047466 -31.0625 64.25 C-30.26907323 62.65252613 -29.47716758 61.05429588 -28.68676758 59.45532227 C-27.1440174 56.33674034 -25.5956758 53.22105878 -24.04199219 50.10791016 C-21.70150149 45.41052158 -19.42191385 40.68623971 -17.1875 35.9375 C-16.86144775 35.24769043 -16.53539551 34.55788086 -16.19946289 33.84716797 C-14.05096112 29.2837649 -11.93998191 24.70335179 -9.83203125 20.12109375 C-9.28071533 18.92299072 -8.72939941 17.7248877 -8.16137695 16.49047852 C-7.07017477 14.11581089 -5.98139294 11.74002928 -4.89526367 9.36303711 C-4.40388916 8.29190674 -3.91251465 7.22077637 -3.40625 6.1171875 C-2.96603516 5.15409668 -2.52582031 4.19100586 -2.07226562 3.19873047 C-1 1 -1 1 0 0 Z " fill="#FDC902" transform="translate(164,804)"/>
<path d="M0 0 C6.93 0 13.86 0 21 0 C21.845625 1.588125 22.69125 3.17625 23.5625 4.8125 C26.28938746 9.82687125 29.24976273 14.62780038 32.38671875 19.39453125 C34.10012004 22.16169507 35.54446301 25.08892603 37 28 C39.31 31.96 41.62 35.92 44 40 C44.33 26.8 44.66 13.6 45 0 C51.6 0 58.2 0 65 0 C65 24.42 65 48.84 65 74 C58.07 74 51.14 74 44 74 C42.515 71.32003906 42.515 71.32003906 41 68.5859375 C40.01046944 66.80163814 39.0206291 65.01751096 38.03076172 63.23339844 C37.35758853 62.01970959 36.68472325 60.80584988 36.01220703 59.59179688 C35.02983942 57.81852761 34.04625912 56.0459351 33.0625 54.2734375 C32.47597656 53.21560059 31.88945312 52.15776367 31.28515625 51.06787109 C27.89102261 45.02587808 24.43827587 39.01698278 21 33 C20.67 46.53 20.34 60.06 20 74 C13.4 74 6.8 74 0 74 C0 49.58 0 25.16 0 0 Z " fill="#F7C504" transform="translate(334,732)"/>
<path d="M0 0 C1.3076683 0.01078583 1.3076683 0.01078583 2.64175415 0.02178955 C4.01744568 0.02135147 4.01744568 0.02135147 5.42092896 0.02090454 C8.46191771 0.0223014 11.5026635 0.03787932 14.54360962 0.05352783 C16.64825303 0.0572567 18.75289818 0.06010426 20.85754395 0.06210327 C26.40439626 0.06974969 31.95114429 0.08940683 37.49795532 0.11151123 C43.15508615 0.13194796 48.81223379 0.14110033 54.46939087 0.15118408 C65.57490551 0.17265177 76.68034265 0.20679985 87.78579712 0.24884033 C86.45377702 4.33044442 84.97651908 8.15555976 83.10610962 12.02227783 C82.58919556 13.09477783 82.07228149 14.16727783 81.53970337 15.27227783 C80.73339478 16.93130127 80.73339478 16.93130127 79.91079712 18.62384033 C79.38099243 19.72212158 78.85118774 20.82040283 78.30532837 21.95196533 C75.50815942 27.74064748 72.66129859 33.49783739 69.78579712 39.24884033 C38.43579712 39.24884033 7.08579712 39.24884033 -25.21420288 39.24884033 C-7.56401561 0.02620196 -7.56401561 0.02620196 0 0 Z " fill="#252022" transform="translate(237.21420288085938,852.7511596679688)"/>
<path d="M0 0 C31.02 0 62.04 0 94 0 C92.20363011 5.38910968 90.13978245 10.39994958 87.8125 15.5625 C87.45091797 16.38041016 87.08933594 17.19832031 86.71679688 18.04101562 C83.46937353 25.26806965 79.78622295 31.9684431 76 39 C44.98 39 13.96 39 -18 39 C-17.16332903 34.81664515 -16.26702023 32.11394982 -14.453125 28.359375 C-13.9375 27.28816406 -13.421875 26.21695313 -12.890625 25.11328125 C-12.34921875 24.00339844 -11.8078125 22.89351562 -11.25 21.75 C-10.46109375 20.10837891 -10.46109375 20.10837891 -9.65625 18.43359375 C-6.6162978 12.15052422 -3.40008544 6.1201538 0 0 Z " fill="#252022" transform="translate(750,537)"/>
<path d="M0 0 C31.02 0 62.04 0 94 0 C93.19743149 4.01284255 92.42891513 6.554777 90.70703125 10.1328125 C90.24103516 11.10476563 89.77503906 12.07671875 89.29492188 13.078125 C88.56112305 14.58632813 88.56112305 14.58632813 87.8125 16.125 C87.34263672 17.10726562 86.87277344 18.08953125 86.38867188 19.1015625 C83.12265877 25.87419541 79.6138171 32.37466864 76 39 C44.98 39 13.96 39 -18 39 C-16.48908094 33.71178329 -14.8668685 29.35568235 -12.375 24.5625 C-11.736605 23.31399333 -11.09860818 22.06528302 -10.4609375 20.81640625 C-9.64882813 19.22699219 -8.83671875 17.63757813 -8 16 C-5.36 10.72 -2.72 5.44 0 0 Z " fill="#252022" transform="translate(415,853)"/>
<path d="M0 0 C31.35 0 62.7 0 95 0 C78.63636364 36.36363636 78.63636364 36.36363636 76 39 C73.01697871 39.18834927 70.12745746 39.25165839 67.14404297 39.22705078 C66.22691528 39.22734283 65.3097876 39.22763489 64.36486816 39.22793579 C61.32387941 39.22653893 58.28313362 39.21096101 55.2421875 39.1953125 C53.13754409 39.19158364 51.03289894 39.18873607 48.92825317 39.18673706 C43.38140086 39.17909064 37.83465283 39.1594335 32.2878418 39.1373291 C26.63071097 39.11689237 20.97356333 39.10774 15.31640625 39.09765625 C4.21089161 39.07618856 -6.89454553 39.04204048 -18 39 C-17.21163393 36.92461408 -16.42078908 34.85016966 -15.62890625 32.77612305 C-14.96870483 31.04316231 -14.96870483 31.04316231 -14.29516602 29.27519226 C-12.73583879 25.33199395 -10.95641314 21.57024474 -9 17.8125 C-8.3540766 16.5482231 -7.70824473 15.28389942 -7.0625 14.01953125 C-6.381875 12.69308594 -5.70125 11.36664062 -5 10 C-3.35 6.7 -1.7 3.4 0 0 Z " fill="#252022" transform="translate(934,537)"/>
<path d="M0 0 C31.35 0 62.7 0 95 0 C91.55349377 8.27161496 88.05044005 16.43057327 84.3125 24.5625 C83.82716797 25.62791016 83.34183594 26.69332031 82.84179688 27.79101562 C82.14086914 29.31952148 82.14086914 29.31952148 81.42578125 30.87890625 C81.00723877 31.7922876 80.58869629 32.70566895 80.1574707 33.64672852 C79 36 79 36 77 39 C73.97973549 39.28605123 71.16547516 39.37795795 68.14404297 39.34057617 C66.76835144 39.34123329 66.76835144 39.34123329 65.36486816 39.34190369 C62.32376043 39.33980832 59.2831993 39.31644202 56.2421875 39.29296875 C54.13754579 39.28737546 52.03290018 39.2831041 49.92825317 39.28010559 C44.38134021 39.26863584 38.83466188 39.23915031 33.2878418 39.20599365 C27.63072891 39.17533865 21.97357821 39.16161004 16.31640625 39.14648438 C5.21083426 39.11428268 -5.89456338 39.06306061 -17 39 C-14.21880552 25.0940276 -6.03838316 12.83156421 0 0 Z " fill="#252022" transform="translate(196,537)"/>
<path d="M0 0 C31.35 0 62.7 0 95 0 C89.49314574 13.21645021 83.2112944 26.09961931 77 39 C45.98 39 14.96 39 -17 39 C-14.21880552 25.0940276 -6.03838316 12.83156421 0 0 Z " fill="#252022" transform="translate(599,853)"/>
<path d="M0 0 C31.35 0 62.7 0 95 0 C85.55 21.2625 85.55 21.2625 82.125 28.5 C81.56039062 29.71236328 81.56039062 29.71236328 80.984375 30.94921875 C80.62085938 31.71878906 80.25734375 32.48835937 79.8828125 33.28125 C79.56715332 33.95220703 79.25149414 34.62316406 78.92626953 35.31445312 C78 37 78 37 76 39 C73.01697871 39.18834927 70.12745746 39.25165839 67.14404297 39.22705078 C66.22691528 39.22734283 65.3097876 39.22763489 64.36486816 39.22793579 C61.32387941 39.22653893 58.28313362 39.21096101 55.2421875 39.1953125 C53.13754409 39.19158364 51.03289894 39.18873607 48.92825317 39.18673706 C43.38140086 39.17909064 37.83465283 39.1594335 32.2878418 39.1373291 C26.63071097 39.11689237 20.97356333 39.10774 15.31640625 39.09765625 C4.21089161 39.07618856 -6.89454553 39.04204048 -18 39 C-12.38447489 25.79489147 -6.20071717 12.96513591 0 0 Z " fill="#252022" transform="translate(565,537)"/>
<path d="M0 0 C0.87537415 0.00359528 1.75074829 0.00719055 2.65264893 0.01089478 C4.02812141 0.01067574 4.02812141 0.01067574 5.43138123 0.01045227 C8.47773564 0.01115177 11.52402973 0.01894589 14.57037354 0.02676392 C16.67644721 0.02862796 18.78252132 0.03005193 20.88859558 0.03105164 C26.44364612 0.03487786 31.99867069 0.04470903 37.55371094 0.05575562 C43.21746469 0.0659675 48.88122262 0.07054878 54.54498291 0.07559204 C65.66673914 0.0863312 76.78847606 0.10340887 87.91021729 0.12442017 C86.3907542 4.80528075 84.56955195 9.22961313 82.46881104 13.67520142 C82.14107193 14.37461349 81.81333282 15.07402557 81.47566223 15.79463196 C80.78723302 17.26183922 80.09717911 18.72828516 79.40557861 20.19400024 C78.34365231 22.44553889 77.28770657 24.69981177 76.23248291 26.95449829 C75.56160899 28.38239718 74.8903971 29.81013734 74.21881104 31.23770142 C73.74380409 32.2516674 73.74380409 32.2516674 73.25920105 33.28611755 C71.02578883 38.00884862 71.02578883 38.00884862 69.91021729 39.12442017 C66.98827064 39.21967384 64.09001399 39.24994753 61.16778564 39.23794556 C59.79231316 39.2381646 59.79231316 39.2381646 58.38905334 39.23838806 C55.34269893 39.23768856 52.29640484 39.22989444 49.25006104 39.22207642 C47.14398736 39.22021237 45.03791325 39.2187884 42.93183899 39.2177887 C37.37678845 39.21396247 31.82176388 39.2041313 26.26672363 39.19308472 C20.60296988 39.18287283 14.93921195 39.17829156 9.27545166 39.17324829 C-1.84630457 39.16250913 -12.96804149 39.14543146 -24.08978271 39.12442017 C-23.62555047 37.70010777 -23.15854498 36.2766991 -22.69039917 34.85366821 C-22.4306386 34.06090988 -22.17087803 33.26815155 -21.90324593 32.45137024 C-20.74711737 29.14420971 -19.30195846 26.09026737 -17.76947021 22.93692017 C-17.31327805 21.99405151 -17.31327805 21.99405151 -16.84786987 21.03213501 C-16.21347718 19.72358921 -15.57649031 18.41629801 -14.93695068 17.11026001 C-13.95455053 15.10351896 -12.98054415 13.09286486 -12.00775146 11.08145142 C-6.63022188 0.01150356 -6.63022188 0.01150356 0 0 Z " fill="#252022" transform="translate(387.08978271484375,536.8755798339844)"/>
<path d="M0 0 C3.02026451 -0.28605123 5.83452484 -0.37795795 8.85595703 -0.34057617 C10.23164856 -0.34123329 10.23164856 -0.34123329 11.63513184 -0.34190369 C14.67623957 -0.33980832 17.7168007 -0.31644202 20.7578125 -0.29296875 C22.86245421 -0.28737546 24.96709982 -0.2831041 27.07174683 -0.28010559 C32.61865979 -0.26863584 38.16533812 -0.23915031 43.7121582 -0.20599365 C49.36927109 -0.17533865 55.02642179 -0.16161004 60.68359375 -0.14648438 C71.78916574 -0.11428268 82.89456338 -0.06306061 94 0 C93.53576775 1.4243124 93.06876226 2.84772107 92.60061646 4.27075195 C92.2109756 5.45988945 92.2109756 5.45988945 91.81346321 6.67304993 C90.65733466 9.98021046 89.21217574 13.03415279 87.6796875 16.1875 C87.37555939 16.8160791 87.07143127 17.4446582 86.75808716 18.09228516 C86.12369447 19.40083095 85.48670759 20.70812216 84.84716797 22.01416016 C83.86476781 24.02090121 82.89076143 26.03155531 81.91796875 28.04296875 C77.15765311 37.84234689 77.15765311 37.84234689 76 39 C73.07805335 39.09525367 70.17979671 39.12552736 67.25756836 39.11352539 C65.88209587 39.11374443 65.88209587 39.11374443 64.47883606 39.1139679 C61.43248164 39.1132684 58.38618755 39.10547428 55.33984375 39.09765625 C53.23377007 39.0957922 51.12769597 39.09436824 49.0216217 39.09336853 C43.46657117 39.08954231 37.91154659 39.07971114 32.35650635 39.06866455 C26.6927526 39.05845267 21.02899467 39.05387139 15.36523438 39.04882812 C4.24347815 39.03808896 -6.87825877 39.0210113 -18 39 C-16.53631447 34.50269625 -14.82379055 30.23350631 -12.8125 25.95703125 C-12.50932861 25.30675461 -12.20615723 24.65647797 -11.89379883 23.98649597 C-11.25663258 22.621847 -10.61785454 21.25794953 -9.97753906 19.89477539 C-8.99888255 17.8101197 -8.02643479 15.7226495 -7.0546875 13.63476562 C-6.43265763 12.30451631 -5.81027406 10.97443232 -5.1875 9.64453125 C-4.89786377 9.02262405 -4.60822754 8.40071686 -4.30981445 7.75996399 C-3.01679854 5.01489825 -1.68829543 2.53244315 0 0 Z " fill="#252022" transform="translate(784,853)"/>
<path d="M0 0 C6.93 0 13.86 0 21 0 C21.73863281 1.36769531 22.47726562 2.73539063 23.23828125 4.14453125 C29.96091526 16.55263112 36.8774904 28.81675989 44 41 C44.33 27.47 44.66 13.94 45 0 C51.27 0 57.54 0 64 0 C64 24.42 64 48.84 64 74 C57.4 74 50.8 74 44 74 C42.64068359 71.55400391 42.64068359 71.55400391 41.25390625 69.05859375 C40.02356431 66.8514918 38.79308829 64.6444646 37.5625 62.4375 C36.97017578 61.37080078 36.37785156 60.30410156 35.76757812 59.20507812 C31.0116789 50.6851517 26.02714779 42.37857965 21 34 C20.67 47.2 20.34 60.4 20 74 C13.4 74 6.8 74 0 74 C0 49.58 0 25.16 0 0 Z " fill="#FBC803" transform="translate(942,732)"/>
<path d="M0 0 C6.93 0 13.86 0 21 0 C21.99 1.98 22.98 3.96 24 6 C27.5155756 12.73818657 31.34184805 19.18599862 35.46875 25.56640625 C37.18489582 28.29385228 38.61260761 31.09308261 40 34 C41.32 36.31 42.64 38.62 44 41 C44.33 27.47 44.66 13.94 45 0 C51.27 0 57.54 0 64 0 C64 24.09 64 48.18 64 73 C57.07 73 50.14 73 43 73 C41.515 70.32003906 41.515 70.32003906 40 67.5859375 C39.01046944 65.80163814 38.0206291 64.01751096 37.03076172 62.23339844 C36.35758853 61.01970959 35.68472325 59.80584988 35.01220703 58.59179688 C34.02983942 56.81852761 33.04625912 55.0459351 32.0625 53.2734375 C31.47597656 52.21560059 30.88945313 51.15776367 30.28515625 50.06787109 C26.89102261 44.02587808 23.43827587 38.01698278 20 32 C19.67 45.53 19.34 59.06 19 73 C12.73 73 6.46 73 0 73 C0 48.91 0 24.82 0 0 Z " fill="#FECA02" transform="translate(499,622)"/>
<path d="M0 0 C29.7 0 59.4 0 90 0 C88.42869677 4.7139097 86.670452 9.08166646 84.55859375 13.55078125 C84.23085464 14.25019333 83.90311554 14.94960541 83.56544495 15.67021179 C82.87701573 17.13741906 82.18696182 18.603865 81.49536133 20.06958008 C80.43343502 22.32111873 79.37748928 24.57539161 78.32226562 26.83007812 C77.65139171 28.25797701 76.98017982 29.68571717 76.30859375 31.11328125 C75.83358681 32.12724724 75.83358681 32.12724724 75.34898376 33.16169739 C73.11557155 37.88442845 73.11557155 37.88442845 72 39 C69.2001028 39.09519368 66.42493826 39.12553944 63.62475586 39.11352539 C62.30780479 39.11374443 62.30780479 39.11374443 60.96424866 39.1139679 C58.04775565 39.11326844 55.13132567 39.10547455 52.21484375 39.09765625 C50.19845108 39.09579218 48.18205796 39.09436823 46.16566467 39.09336853 C40.84734862 39.08954244 35.5290597 39.07971139 30.21075439 39.06866455 C24.78829312 39.05845238 19.36582748 39.05387133 13.94335938 39.04882812 C3.29556097 39.0380892 -7.35221726 39.02101169 -18 39 C-12.25807862 25.86415194 -6.16762791 12.95201861 0 0 Z " fill="#FECA02" transform="translate(475,537)"/>
<path d="M0 0 C29.37 0 58.74 0 89 0 C88.12668032 4.36659842 87.04722336 7.41576411 85.19921875 11.40234375 C84.92157181 12.00252823 84.64392487 12.60271271 84.35786438 13.22108459 C83.77126183 14.48545818 83.18195042 15.74857814 82.59008789 17.01049805 C81.69350039 18.92468933 80.8081019 20.84376658 79.92382812 22.76367188 C79.34962458 23.99770606 78.77477544 25.23144009 78.19921875 26.46484375 C77.68190186 27.574646 77.16458496 28.68444824 76.6315918 29.82788086 C75.82395386 31.39807983 75.82395386 31.39807983 75 33 C74.4842189 34.04137619 73.96843781 35.08275238 73.43702698 36.15568542 C71 39 71 39 67.14019775 39.7215271 C65.55216192 39.73889033 63.96355516 39.72302719 62.37597656 39.68115234 C61.07299873 39.68246658 61.07299873 39.68246658 59.74369812 39.68380737 C56.87508932 39.67963013 54.00882473 39.63297302 51.140625 39.5859375 C49.15095294 39.57474582 47.16126433 39.5662055 45.17156982 39.56021118 C39.9366891 39.53731075 34.70280852 39.47837659 29.46832275 39.4119873 C24.12615489 39.35059123 18.78382529 39.32320186 13.44140625 39.29296875 C2.96049826 39.22863491 -7.51966768 39.12624032 -18 39 C-16.61062752 34.73177204 -15.02700902 30.7595606 -13.06640625 26.71875 C-12.49986328 25.54699219 -11.93332031 24.37523437 -11.34960938 23.16796875 C-10.75395688 21.94528783 -10.15825335 20.72263178 -9.5625 19.5 C-8.97037756 18.27750139 -8.37857795 17.05484635 -7.78710938 15.83203125 C-5.22185286 10.53845992 -2.63076989 5.26153978 0 0 Z " fill="#FDC902" transform="translate(694,853)"/>
<path d="M0 0 C29.7 0 59.4 0 90 0 C88.77910078 3.66269765 87.70818116 6.83903155 86.08203125 10.25 C85.52999023 11.41208984 85.52999023 11.41208984 84.96679688 12.59765625 C84.58587891 13.39042969 84.20496094 14.18320312 83.8125 15 C83.45091797 15.76183594 83.08933594 16.52367187 82.71679688 17.30859375 C79.2429305 24.59115699 75.60994549 31.78010902 72 39 C42.3 39 12.6 39 -18 39 C-12.33510638 25.40425532 -12.33510638 25.40425532 -9.5625 19.5 C-9.02753906 18.3553125 -8.49257813 17.210625 -7.94140625 16.03125 C-5.35388966 10.65837853 -2.66694544 5.33389089 0 0 Z " fill="#FECA02" transform="translate(844,537)"/>
<path d="M0 0 C29.7 0 59.4 0 90 0 C87.18592586 7.03518536 84.31441356 13.81241539 81.0625 20.625 C80.64548828 21.51445313 80.22847656 22.40390625 79.79882812 23.3203125 C79.38181641 24.196875 78.96480469 25.0734375 78.53515625 25.9765625 C78.167854 26.75080566 77.80055176 27.52504883 77.42211914 28.32275391 C76.95281982 29.20624512 76.48352051 30.08973633 76 31 C75.69460171 31.65324186 75.38920341 32.30648373 75.07455063 32.9795208 C72.15195341 38.55365684 72.15195341 38.55365684 69.12248898 39.72747231 C66.80104608 39.9864567 64.59706117 39.99067094 62.26245117 39.90820312 C60.9592543 39.90995544 60.9592543 39.90995544 59.62973022 39.91174316 C56.76583418 39.90618131 53.90613429 39.84402552 51.04296875 39.78125 C49.05473608 39.76632456 47.06647393 39.75493897 45.07820129 39.74694824 C39.85119034 39.71643799 34.62596484 39.63788435 29.3996582 39.54931641 C24.06421056 39.46740104 18.72847367 39.4309246 13.39257812 39.390625 C2.92760198 39.30488923 -7.53605041 39.16839538 -18 39 C-16.78483288 35.2950857 -15.51482843 31.75872194 -13.828125 28.2421875 C-13.41046875 27.36820313 -12.9928125 26.49421875 -12.5625 25.59375 C-12.129375 24.6965625 -11.69625 23.799375 -11.25 22.875 C-10.83234375 22.00101563 -10.4146875 21.12703125 -9.984375 20.2265625 C-6.73187305 13.44390599 -3.36493008 6.72986015 0 0 Z " fill="#FDC902" transform="translate(325,853)"/>
<path d="M0 0 C1.25695679 0.00539291 1.25695679 0.00539291 2.53930664 0.01089478 C3.41727402 0.01074875 4.29524139 0.01060272 5.19981384 0.01045227 C8.11630685 0.01115172 11.03273683 0.01894561 13.94921875 0.02676392 C15.96561142 0.02862798 17.98200454 0.03005194 19.99839783 0.03105164 C25.31671388 0.03487772 30.6350028 0.04470878 35.95330811 0.05575562 C41.37576938 0.06596779 46.79823502 0.07054884 52.22070312 0.07559204 C62.86850153 0.08633097 73.51627976 0.10340847 84.1640625 0.12442017 C82.85514275 3.06352721 81.54115363 6.00034595 80.2265625 8.93692017 C79.87271484 9.7316272 79.51886719 10.52633423 79.15429688 11.34512329 C74.9698568 20.67964346 70.54696122 29.87163399 66.1640625 39.12442017 C36.4640625 39.12442017 6.7640625 39.12442017 -23.8359375 39.12442017 C-22.26463427 34.41051046 -20.5063895 30.04275371 -18.39453125 25.57363892 C-18.06679214 24.87422684 -17.73905304 24.17481476 -17.40138245 23.45420837 C-16.71295323 21.98700111 -16.02289932 20.52055517 -15.33129883 19.05484009 C-14.26937252 16.80330144 -13.21342678 14.54902856 -12.15820312 12.29434204 C-11.48732921 10.86644315 -10.81611732 9.438703 -10.14453125 8.01113892 C-9.82785995 7.33516159 -9.51118866 6.65918427 -9.18492126 5.96272278 C-6.55276596 0.39681715 -6.23495158 0.01129768 0 0 Z " fill="#FECA02" transform="translate(665.8359375,536.8755798339844)"/>
<path d="M0 0 C29.7 0 59.4 0 90 0 C84.12447198 13.05672893 78.12926368 26.06044333 72 39 C42.3 39 12.6 39 -18 39 C-16.53951468 34.61854405 -15.06175298 30.83116803 -13.06640625 26.71875 C-12.49986328 25.54699219 -11.93332031 24.37523437 -11.34960938 23.16796875 C-10.75395688 21.94528783 -10.15825335 20.72263178 -9.5625 19.5 C-8.97037756 18.27750139 -8.37857795 17.05484635 -7.78710938 15.83203125 C-5.22185286 10.53845992 -2.63076989 5.26153978 0 0 Z " fill="#FECA02" transform="translate(291,537)"/>
<path d="M0 0 C29.7 0 59.4 0 90 0 C88.59813526 4.20559421 87.22618093 7.83341471 85.3203125 11.7734375 C84.80339844 12.8459375 84.28648437 13.9184375 83.75390625 15.0234375 C82.94759766 16.68246094 82.94759766 16.68246094 82.125 18.375 C81.59519531 19.47328125 81.06539062 20.5715625 80.51953125 21.703125 C77.7223623 27.49180715 74.87550147 33.24899706 72 39 C42.63 39 13.26 39 -17 39 C-16.09234827 34.46174135 -14.92599806 31.44570387 -12.91015625 27.34375 C-12.60556992 26.7189978 -12.30098358 26.09424561 -11.98716736 25.45056152 C-11.01770057 23.46433235 -10.04050175 21.48203854 -9.0625 19.5 C-8.08947993 17.51730582 -7.11812921 15.53381477 -6.14854431 13.54943848 C-5.26763025 11.74820956 -4.3821069 9.94923704 -3.49633789 8.15039062 C-2.22801816 5.48006956 -1.09791335 2.74478338 0 0 Z " fill="#FDC902" transform="translate(878,853)"/>
<path d="M0 0 C0.82862045 0.00359528 1.65724091 0.00719055 2.51097107 0.01089478 C3.81329178 0.01067574 3.81329178 0.01067574 5.141922 0.01045227 C8.02594967 0.01115171 10.9099136 0.01894554 13.79393005 0.02676392 C15.78790247 0.02862799 17.78187535 0.03005194 19.77584839 0.03105164 C25.03498082 0.03487769 30.29408583 0.04470871 35.5532074 0.05575562 C40.91534555 0.06596786 46.27748811 0.07054885 51.63963318 0.07559204 C62.16894213 0.0863309 72.69823069 0.10340837 83.2275238 0.12442017 C82.76083284 1.55314943 82.29163975 2.98106152 81.82141113 4.40863037 C81.56040147 5.20388689 81.2993918 5.99914341 81.03047276 6.81849861 C79.94914583 9.92387044 78.59474341 12.84645719 77.16111755 15.80410767 C76.59328552 16.97973267 76.02545349 18.15535767 75.44041443 19.36660767 C75.1488446 19.96312134 74.85727478 20.55963501 74.55686951 21.17422485 C73.65783728 23.01412766 72.76727294 24.85794974 71.87791443 26.70254517 C67.5206944 35.68466428 67.5206944 35.68466428 65.2275238 39.12442017 C62.35667885 39.41057996 59.70248092 39.50254203 56.83055115 39.46499634 C55.96219131 39.46543442 55.09383148 39.4658725 54.19915771 39.46632385 C51.32036586 39.46422884 48.44215178 39.44086437 45.5634613 39.41738892 C43.570921 39.41179549 41.57837658 39.4075242 39.58583069 39.40452576 C34.33483033 39.393057 29.08407789 39.36357238 23.83317566 39.33041382 C18.47768 39.29975664 13.12214437 39.28602974 7.7665863 39.27090454 C-2.74654361 39.23870461 -13.25948931 39.18748379 -23.7724762 39.12442017 C-23.08116412 35.37725197 -22.11116739 32.50572466 -20.3349762 29.12442017 C-16.76405928 22.18290606 -13.43435605 15.13538401 -10.11256409 8.07168579 C-9.69482727 7.18803345 -9.27709045 6.3043811 -8.84669495 5.39395142 C-8.47117493 4.59578003 -8.09565491 3.79760864 -7.70875549 2.97525024 C-5.85270548 -0.69377587 -3.9204669 0.00718352 0 0 Z " fill="#FDC902" transform="translate(515.7724761962891,852.8755798339844)"/>
<path d="M0 0 C0.91808441 0.00565979 1.83616882 0.01131958 2.78207397 0.01715088 C5.6755898 0.03930025 8.56780461 0.08945329 11.4609375 0.140625 C13.43878403 0.16071782 15.41665023 0.17896367 17.39453125 0.1953125 C22.20882428 0.23909425 27.02216139 0.30796869 31.8359375 0.390625 C31.8359375 5.340625 31.8359375 10.290625 31.8359375 15.390625 C30.78615723 15.41044434 29.73637695 15.43026367 28.65478516 15.45068359 C24.76700489 15.52664698 20.87960347 15.61537798 16.9921875 15.70800781 C15.30834421 15.74633604 13.62441795 15.78118212 11.94042969 15.8125 C9.52248444 15.85806787 7.10511222 15.91607423 4.6875 15.9765625 C3.55461044 15.99388931 3.55461044 15.99388931 2.39883423 16.01156616 C-1.84231448 15.99392566 -1.84231448 15.99392566 -5.1640625 18.390625 C-5.44449234 20.56600184 -5.44449234 20.56600184 -5.3515625 22.953125 C-5.34511719 23.75878906 -5.33867187 24.56445312 -5.33203125 25.39453125 C-5.38037162 27.38942385 -5.38037162 27.38942385 -4.1640625 28.390625 C-2.36696904 28.50023148 -0.56594807 28.54652345 1.234375 28.56640625 C2.35457031 28.59025391 3.47476562 28.61410156 4.62890625 28.63867188 C6.97769225 28.68093465 9.32669903 28.71255929 11.67578125 28.73242188 C19.19226319 28.91627212 26.15390877 29.69300193 32.8359375 33.390625 C38.87736949 40.05457218 39.14487663 47.43040618 39.046875 56.09375 C38.66507784 62.06109819 37.58239046 67.19993925 33.0234375 71.328125 C27.24303792 75.06838355 22.0480058 75.71801705 15.2734375 75.640625 C14.43586914 75.63675781 13.59830078 75.63289062 12.73535156 75.62890625 C0.08151676 75.46603959 -12.55331885 74.36874362 -25.1640625 73.390625 C-25.1640625 68.440625 -25.1640625 63.490625 -25.1640625 58.390625 C-23.72417969 58.4628125 -22.28429687 58.535 -20.80078125 58.609375 C-10.96422872 59.08243186 -1.13829595 59.49264186 8.7109375 59.515625 C9.92197144 59.52239258 9.92197144 59.52239258 11.1574707 59.52929688 C14.79553593 59.8598746 14.79553593 59.8598746 17.8359375 58.390625 C18.07021528 56.37467918 18.24929874 54.352151 18.3984375 52.328125 C18.48222656 51.22339844 18.56601562 50.11867188 18.65234375 48.98046875 C18.74322266 47.69849609 18.74322266 47.69849609 18.8359375 46.390625 C18.09545166 46.40109863 17.35496582 46.41157227 16.59204102 46.42236328 C13.19420855 46.46427581 9.79643075 46.49006245 6.3984375 46.515625 C5.23376953 46.53238281 4.06910156 46.54914062 2.86914062 46.56640625 C-14.64527573 46.66507902 -14.64527573 46.66507902 -20.1015625 41.515625 C-20.64683594 41.02320313 -21.19210937 40.53078125 -21.75390625 40.0234375 C-26.84181616 34.13217339 -26.66212195 25.79766291 -26.1640625 18.390625 C-25.38380203 12.97818529 -23.90142665 8.50172557 -20.1640625 4.390625 C-13.54796332 0.78701135 -7.43026078 -0.17691303 0 0 Z " fill="#F9C703" transform="translate(433.1640625,731.609375)"/>
<path d="M0 0 C6.27 0 12.54 0 19 0 C19.01458252 1.71622559 19.02916504 3.43245117 19.04418945 5.20068359 C19.09578958 10.86463339 19.16106122 16.52831444 19.23571491 22.19200706 C19.2804849 25.62667887 19.31972572 29.06123025 19.34643555 32.49609375 C19.3773671 36.4429689 19.43215852 40.38933676 19.48828125 44.3359375 C19.49467117 45.57242035 19.5010611 46.8089032 19.50764465 48.08285522 C19.53733589 49.79440292 19.53733589 49.79440292 19.56762695 51.54052734 C19.57873001 52.548685 19.58983307 53.55684265 19.60127258 54.59555054 C19.73285263 55.38901886 19.86443268 56.18248718 20 57 C23.2159105 59.14394034 24.11030934 59.25580474 27.81640625 59.265625 C29.20956055 59.26949219 29.20956055 59.26949219 30.63085938 59.2734375 C32.08202148 59.26183594 32.08202148 59.26183594 33.5625 59.25 C34.53380859 59.25773438 35.50511719 59.26546875 36.50585938 59.2734375 C37.43333984 59.27085937 38.36082031 59.26828125 39.31640625 59.265625 C40.16662354 59.26336914 41.01684082 59.26111328 41.89282227 59.25878906 C44.21769005 59.19273616 44.21769005 59.19273616 46 57 C46.3317253 54.49310171 46.3317253 54.49310171 46.31884766 51.54052734 C46.33871735 50.39949554 46.35858704 49.25846375 46.37905884 48.08285522 C46.39061005 46.84637238 46.40216125 45.60988953 46.4140625 44.3359375 C46.43342865 43.07359283 46.4527948 41.81124817 46.4727478 40.51065063 C46.52249045 37.15365788 46.56372572 33.79677685 46.60089111 30.43963623 C46.64088847 27.01434336 46.69200019 23.58921854 46.7421875 20.1640625 C46.83840073 13.44280687 46.92237875 6.72149502 47 0 C53.27 0 59.54 0 66 0 C66.06799187 7.68482443 66.12294015 15.3695355 66.15543652 23.05458832 C66.17103947 26.62374621 66.19217818 30.19268622 66.22631836 33.76171875 C66.25910534 37.21118793 66.27689332 40.66044857 66.28463173 44.11006165 C66.29280731 46.05533736 66.31619545 48.00053012 66.33988953 49.94567871 C66.34256929 64.14487462 66.34256929 64.14487462 61.68937683 69.51159668 C56.09733155 74.58805365 50.08763579 75.30983726 42.8203125 75.30078125 C42.04871796 75.30506638 41.27712341 75.3093515 40.48214722 75.31376648 C38.85676042 75.31948497 37.23134805 75.32002842 35.60595703 75.31567383 C33.13919701 75.31251816 30.67364297 75.33598791 28.20703125 75.36132812 C26.61979316 75.36360205 25.03255189 75.36430418 23.4453125 75.36328125 C22.71796906 75.372491 21.99062561 75.38170074 21.24124146 75.39118958 C14.53364926 75.33156975 9.03962755 73.9509481 4.125 69.25 C-0.80815237 61.70517873 -0.26738546 54.1686385 -0.1953125 45.41015625 C-0.1924826 44.11049423 -0.18965271 42.81083221 -0.18673706 41.4717865 C-0.17914655 38.03750745 -0.15953823 34.60340093 -0.1373291 31.16918945 C-0.11677121 27.65643649 -0.1077142 24.14365531 -0.09765625 20.63085938 C-0.07628734 13.75382877 -0.04114328 6.87694046 0 0 Z " fill="#FDC902" transform="translate(615,732)"/>
<path d="M0 0 C6.27 0 12.54 0 19 0 C19.01981934 1.6806958 19.03963867 3.3613916 19.06005859 5.09301758 C19.12782124 10.64515275 19.20459585 16.19711425 19.28752708 21.74904346 C19.33747962 25.11528716 19.38380947 28.48149963 19.421875 31.84790039 C19.46742835 35.7177998 19.52543941 39.58734025 19.5859375 43.45703125 C19.59748871 44.66647903 19.60903992 45.87592682 19.62094116 47.12202454 C19.64081085 48.24296005 19.66068054 49.36389557 19.68115234 50.51879883 C19.69447601 51.50697098 19.70779968 52.49514313 19.7215271 53.51325989 C19.83553926 56.25018811 19.83553926 56.25018811 22 59 C24.17339928 59.44827863 24.17339928 59.44827863 26.68359375 59.36328125 C27.61107422 59.36263672 28.53855469 59.36199219 29.49414062 59.36132812 C30.46544922 59.34521484 31.43675781 59.32910156 32.4375 59.3125 C33.40494141 59.31572266 34.37238281 59.31894531 35.36914062 59.32226562 C41.0130869 59.40854415 41.0130869 59.40854415 46 57 C46.4775567 54.49939891 46.4775567 54.49939891 46.43237305 51.54052734 C46.45216721 50.39949554 46.47196136 49.25846375 46.49235535 48.08285522 C46.49874527 46.84637238 46.50513519 45.60988953 46.51171875 44.3359375 C46.52966995 43.07359283 46.54762115 41.81124817 46.56611633 40.51065063 C46.61120235 37.15357857 46.64344945 33.79687552 46.66955566 30.43963623 C46.69932615 27.01430927 46.74586835 23.58921519 46.79101562 20.1640625 C46.87618347 13.44279426 46.94288786 6.72156284 47 0 C53.27 0 59.54 0 66 0 C66.09071928 7.6675237 66.16395571 15.33484463 66.20724869 23.00277615 C66.22803754 26.56414829 66.25619285 30.12513114 66.30175781 33.6862793 C66.35392533 37.78958669 66.37301694 41.89249139 66.390625 45.99609375 C66.41127014 47.26206894 66.43191528 48.52804413 66.45318604 49.8323822 C66.45496693 56.90919477 66.05172383 62.99205293 62 69 C57.8219073 72.41068792 54.27319288 74.10366475 48.89916992 74.17700195 C48.07789108 74.18983719 47.25661224 74.20267242 46.41044617 74.21589661 C45.52605362 74.22328354 44.64166107 74.23067047 43.73046875 74.23828125 C42.81670975 74.246353 41.90295074 74.25442474 40.96150208 74.26274109 C39.02733247 74.27657007 37.09313858 74.28729753 35.15893555 74.29516602 C32.20899957 74.31237458 29.26018579 74.35627051 26.31054688 74.40039062 C24.42969573 74.4105184 22.54883507 74.41903424 20.66796875 74.42578125 C19.7896489 74.44328934 18.91132904 74.46079742 18.00639343 74.47883606 C12.50571957 74.45946455 9.34200759 73.70020003 5 70 C1.14678345 64.89709159 -0.1265716 61.38722545 -0.11352539 55.05981445 C-0.11344986 53.83877518 -0.11337433 52.6177359 -0.11329651 51.35969543 C-0.10813522 50.04087875 -0.10297394 48.72206207 -0.09765625 47.36328125 C-0.0957908 45.99993441 -0.0943675 44.63658689 -0.09336853 43.27323914 C-0.08955332 39.68771509 -0.07973155 36.10223165 -0.06866455 32.51672363 C-0.05842901 28.8568578 -0.05386632 25.1969854 -0.04882812 21.53710938 C-0.03810838 14.35805227 -0.02051965 7.179037 0 0 Z " fill="#FDCA02" transform="translate(421,622)"/>
<path d="M0 0 C19.14 0 38.28 0 58 0 C58 4.95 58 9.9 58 15 C45.13 15 32.26 15 19 15 C19 19.62 19 24.24 19 29 C29.23 29 39.46 29 50 29 C50 33.95 50 38.9 50 44 C39.77 44 29.54 44 19 44 C19 48.62 19 53.24 19 58 C31.87 58 44.74 58 58 58 C58 63.28 58 68.56 58 74 C38.86 74 19.72 74 0 74 C0 49.58 0 25.16 0 0 Z " fill="#FAC703" transform="translate(650,622)"/>
<path d="M0 0 C0.96813629 0.0028299 1.93627258 0.00565979 2.93374634 0.00857544 C6.01064678 0.01972554 9.08725078 0.0448207 12.1640625 0.0703125 C14.2565062 0.08034898 16.34895448 0.08947366 18.44140625 0.09765625 C23.55740501 0.11964797 28.67318358 0.15414225 33.7890625 0.1953125 C33.7890625 5.1453125 33.7890625 10.0953125 33.7890625 15.1953125 C32.71422607 15.20989502 31.63938965 15.22447754 30.53198242 15.23950195 C26.54531533 15.2974614 22.55921449 15.37469379 18.57299805 15.45776367 C16.84750557 15.49102422 15.12190401 15.51905269 13.39624023 15.54174805 C10.91603084 15.57527403 8.4368222 15.62758656 5.95703125 15.68359375 C4.79907295 15.69317863 4.79907295 15.69317863 3.61772156 15.70295715 C-0.41238 15.73555486 -0.41238 15.73555486 -3.91549683 17.48501587 C-6.17376248 20.46647555 -5.61511092 24.13645171 -5.57421875 27.73046875 C-5.57471725 28.56493027 -5.57521576 29.39939178 -5.57572937 30.25914001 C-5.5733901 32.02182397 -5.5636702 33.78451134 -5.54711914 35.54711914 C-5.523496 38.25111604 -5.52656283 40.95412907 -5.53320312 43.65820312 C-5.52762738 45.36979757 -5.52051815 47.08138785 -5.51171875 48.79296875 C-5.51263016 49.60443863 -5.51354156 50.41590851 -5.51448059 51.25196838 C-5.63754953 55.69458861 -5.63754953 55.69458861 -3.2109375 59.1953125 C-0.3410182 59.37317515 2.42076755 59.42799584 5.2890625 59.3828125 C6.54456909 59.37314453 6.54456909 59.37314453 7.82543945 59.36328125 C16.49500784 59.25940549 25.13996039 58.773986 33.7890625 58.1953125 C33.7890625 63.1453125 33.7890625 68.0953125 33.7890625 73.1953125 C9.75164563 75.38586636 9.75164563 75.38586636 -1.7734375 75.5078125 C-2.51440674 75.52521484 -3.25537598 75.54261719 -4.01879883 75.56054688 C-10.02412173 75.55504938 -15.5381479 74.38121823 -20.26953125 70.51171875 C-20.72457031 69.93292969 -21.17960938 69.35414063 -21.6484375 68.7578125 C-22.12152344 68.18160156 -22.59460938 67.60539063 -23.08203125 67.01171875 C-25.12044061 63.73192515 -25.34007242 60.45971808 -25.38793945 56.66137695 C-25.40077469 55.76977371 -25.41360992 54.87817047 -25.42683411 53.95954895 C-25.43422104 53.00223373 -25.44160797 52.04491852 -25.44921875 51.05859375 C-25.4572905 50.06458054 -25.46536224 49.07056732 -25.47367859 48.0464325 C-25.48749989 45.94251235 -25.49823077 43.83856996 -25.50610352 41.73461914 C-25.51761178 39.59229929 -25.53804516 37.45000785 -25.56762695 35.30786133 C-25.61048368 32.20374161 -25.62649889 29.10047331 -25.63671875 25.99609375 C-25.66298088 24.57530266 -25.66298088 24.57530266 -25.68977356 23.12580872 C-25.66566299 15.64792306 -24.17223293 9.23453676 -18.8359375 3.7578125 C-12.62936946 0.06342676 -7.0220076 -0.07781732 0 0 Z " fill="#FBC802" transform="translate(716.2109375,731.8046875)"/>
<path d="M0 0 C1.29088531 0.0001133 1.29088531 0.0001133 2.60784912 0.00022888 C3.52777649 0.00539017 4.44770386 0.01055145 5.39550781 0.01586914 C6.81866302 0.01799156 6.81866302 0.01799156 8.27056885 0.02015686 C11.29662243 0.02574797 14.32260164 0.03829887 17.34863281 0.05102539 C19.40201716 0.05604154 21.45540267 0.06060425 23.50878906 0.06469727 C28.53876557 0.0757145 33.56868659 0.09297306 38.59863281 0.11352539 C38.59863281 5.06352539 38.59863281 10.01352539 38.59863281 15.11352539 C36.97852295 15.14325439 36.97852295 15.14325439 35.32568359 15.17358398 C31.32609368 15.24954163 27.32687229 15.33827355 23.32763672 15.4309082 C21.59528875 15.4692388 19.86286007 15.50408445 18.13037109 15.53540039 C15.64293533 15.58096304 13.15605715 15.63897042 10.66894531 15.69946289 C9.89181183 15.7110141 9.11467834 15.72256531 8.31399536 15.73446655 C3.99212306 15.70146307 3.99212306 15.70146307 0.59863281 18.11352539 C0.42316799 21.1266149 0.36735836 24.04662993 0.40332031 27.05883789 C0.40756516 28.38635574 0.40756516 28.38635574 0.41189575 29.74069214 C0.42311041 32.57343951 0.44821711 35.40587323 0.47363281 38.23852539 C0.48366096 40.15648958 0.4927871 42.07445872 0.50097656 43.99243164 C0.52305392 48.69958415 0.55759236 53.40650155 0.59863281 58.11352539 C3.74086614 59.68464206 7.08869298 59.25880871 10.53613281 59.23852539 C11.32358887 59.2365918 12.11104492 59.2346582 12.92236328 59.23266602 C21.82956452 59.16945702 30.71042228 58.66534334 39.59863281 58.11352539 C39.59863281 63.06352539 39.59863281 68.01352539 39.59863281 73.11352539 C27.57461371 74.21736977 15.55456055 75.30600089 3.47363281 75.42602539 C2.67666992 75.44342773 1.87970703 75.46083008 1.05859375 75.47875977 C-5.49533137 75.47314613 -10.14927176 74.06534143 -15.21386719 69.67602539 C-18.47354007 65.85755144 -19.64709825 63.2218825 -19.69189453 58.1965332 C-19.70465424 57.22161926 -19.71741394 56.24670532 -19.7305603 55.24224854 C-19.73278595 54.19430115 -19.7350116 53.14635376 -19.73730469 52.06665039 C-19.74396149 50.98148132 -19.75061829 49.89631226 -19.75747681 48.77825928 C-19.76760005 46.48182875 -19.77229393 44.18536883 -19.77197266 41.88891602 C-19.77633372 38.39036976 -19.812625 34.89309748 -19.85058594 31.39477539 C-19.85645669 29.16040469 -19.86042435 26.92602801 -19.86230469 24.69165039 C-19.87667572 23.65179993 -19.89104675 22.61194946 -19.90585327 21.54058838 C-19.86722683 15.3415193 -19.24310211 10.17249489 -15.40136719 5.11352539 C-10.76519597 1.40211177 -5.83843081 -0.01717186 0 0 Z " fill="#FBC803" transform="translate(211.4013671875,731.886474609375)"/>
<path d="M0 0 C20.46 0 40.92 0 62 0 C62 4.95 62 9.9 62 15 C55.07 15 48.14 15 41 15 C41 34.47 41 53.94 41 74 C34.4 74 27.8 74 21 74 C21 54.53 21 35.06 21 15 C14.07 15 7.14 15 0 15 C0 10.05 0 5.1 0 0 Z " fill="#F9C603" transform="translate(753,732)"/>
<path d="M0 0 C20.79 0 41.58 0 63 0 C63 4.95 63 9.9 63 15 C55.74 15 48.48 15 41 15 C41 34.47 41 53.94 41 74 C34.73 74 28.46 74 22 74 C22 54.53 22 35.06 22 15 C14.74 15 7.48 15 0 15 C0 10.05 0 5.1 0 0 Z " fill="#FDC902" transform="translate(470,732)"/>
<path d="M0 0 C5.88099704 3.02542266 9.94781613 7.51274383 13.0625 13.3125 C15.46508005 21.23485371 15.54401222 27.89104359 12.08984375 35.4375 C8.49226563 41.87655507 3.43829706 45.96218118 -3.375 48.6875 C-12.58841401 50.30388842 -19.01660234 49.15466042 -26.91796875 44.02734375 C-32.96436572 39.39907827 -35.63176371 33.28207094 -36.875 25.875 C-37.36568012 18.65319511 -35.27155415 12.50237654 -30.6875 6.9375 C-22.58287317 -1.56205568 -11.08577832 -4.62062693 0 0 Z " fill="#385E7D" transform="translate(610.9375,310.6875)"/>
<path d="M0 0 C12.54 0 25.08 0 38 0 C38 4.95 38 9.9 38 15 C35.03 15 32.06 15 29 15 C29 29.52 29 44.04 29 59 C31.97 59 34.94 59 38 59 C38 63.95 38 68.9 38 74 C25.46 74 12.92 74 0 74 C0 69.05 0 64.1 0 59 C3.3 59 6.6 59 10 59 C10 44.48 10 29.96 10 15 C6.7 15 3.4 15 0 15 C0 10.05 0 5.1 0 0 Z " fill="#FBC803" transform="translate(819,732)"/>
<path d="M0 0 C0.96164062 -0.00064453 1.92328125 -0.00128906 2.9140625 -0.00195312 C3.91179688 0.01802734 4.90953125 0.03800781 5.9375 0.05859375 C6.93523438 0.05150391 7.93296875 0.04441406 8.9609375 0.03710938 C15.99913563 0.09843416 15.99913563 0.09843416 19.22290039 1.46459961 C21.9698332 4.71922412 21.48727699 8.37147388 21.43359375 12.43359375 C21.43504898 13.31007568 21.43650421 14.18655762 21.43800354 15.08959961 C21.43634394 16.94225387 21.42477573 18.79492183 21.40405273 20.64746094 C21.37510681 23.48562085 21.38344007 26.32191239 21.39648438 29.16015625 C21.39024672 30.95964451 21.38185557 32.75912686 21.37109375 34.55859375 C21.37402939 35.4086499 21.37696503 36.25870605 21.37998962 37.13452148 C21.2849822 43.05870027 21.2849822 43.05870027 19.56825256 45.21963501 C17.22081031 47.05707697 15.4524686 46.88423878 12.5 46.89453125 C11.44039062 46.89839844 10.38078125 46.90226563 9.2890625 46.90625 C8.18304687 46.89464844 7.07703125 46.88304687 5.9375 46.87109375 C4.83148437 46.88269531 3.72546875 46.89429688 2.5859375 46.90625 C1.52632812 46.90238281 0.46671875 46.89851562 -0.625 46.89453125 C-1.59566406 46.89114746 -2.56632813 46.88776367 -3.56640625 46.88427734 C-6.53160466 46.42314027 -7.22188292 45.80392625 -9.0625 43.49609375 C-9.37314889 40.53057002 -9.50665071 37.77947646 -9.49609375 34.8125 C-9.5013356 33.96058578 -9.50657745 33.10867157 -9.51197815 32.23094177 C-9.51840004 30.42960703 -9.51705917 28.62823036 -9.50854492 26.8269043 C-9.50004136 24.07199286 -9.52878169 21.31915928 -9.56054688 18.56445312 C-9.56215916 16.8138027 -9.56158083 15.06314861 -9.55859375 13.3125 C-9.56982773 12.48947891 -9.58106171 11.66645782 -9.59263611 10.8184967 C-9.54751412 7.11086434 -9.47189613 5.09780055 -7.34790039 1.97607422 C-4.66022331 0.23558725 -3.18372032 -0.0067402 0 0 Z " fill="#434140" transform="translate(892.0625,745.50390625)"/>
<path d="M0 0 C1.00224609 -0.01611328 2.00449219 -0.03222656 3.03710938 -0.04882812 C4.48633789 -0.04979492 4.48633789 -0.04979492 5.96484375 -0.05078125 C6.84648193 -0.05376221 7.72812012 -0.05674316 8.63647461 -0.05981445 C11.7838005 0.42319571 12.99114256 0.84984678 15.0625 3.3125 C15.45470313 6.41195438 15.59954982 9.15092328 15.55859375 12.25 C15.56004898 13.12648193 15.56150421 14.00296387 15.56300354 14.90600586 C15.56134394 16.75866012 15.54977573 18.61132808 15.52905273 20.46386719 C15.50010681 23.3020271 15.50844007 26.13831864 15.52148438 28.9765625 C15.51524672 30.77605076 15.50685557 32.57553311 15.49609375 34.375 C15.49902939 35.22505615 15.50196503 36.0751123 15.50498962 36.95092773 C15.40995233 42.87696904 15.40995233 42.87696904 13.68751526 45.03604126 C11.39270974 46.83862407 9.7363214 46.70039899 6.84375 46.7109375 C5.82925781 46.71480469 4.81476563 46.71867188 3.76953125 46.72265625 C2.71121094 46.71105469 1.65289062 46.69945312 0.5625 46.6875 C-0.49582031 46.69910156 -1.55414063 46.71070313 -2.64453125 46.72265625 C-4.16626953 46.71685547 -4.16626953 46.71685547 -5.71875 46.7109375 C-6.64751953 46.70755371 -7.57628906 46.70416992 -8.53320312 46.70068359 C-11.43150444 46.23274096 -12.13658858 45.5803892 -13.9375 43.3125 C-14.31845093 41.40867615 -14.31845093 41.40867615 -14.32568359 39.23999023 C-14.33514008 38.42582138 -14.34459656 37.61165253 -14.3543396 36.77281189 C-14.34826691 35.8977449 -14.34219421 35.02267792 -14.3359375 34.12109375 C-14.34024277 32.76951927 -14.34024277 32.76951927 -14.34463501 31.39064026 C-14.34667595 29.4867388 -14.34114397 27.58281639 -14.32861328 25.67895508 C-14.31254127 22.75750114 -14.32847042 19.8374268 -14.34765625 16.91601562 C-14.34567419 15.06770527 -14.34183129 13.21939577 -14.3359375 11.37109375 C-14.34201019 10.49400253 -14.34808289 9.61691132 -14.3543396 8.71324158 C-14.32568359 6.25561523 -14.32568359 6.25561523 -13.9375 2.3125 C-9.47690842 -0.66122772 -5.24663019 -0.01680535 0 0 Z " fill="#424041" transform="translate(289.9375,745.6875)"/>
<path d="M0 0 C21 0 21 0 26 3 C28.23745673 7.47491345 27.31119779 13.9527924 27.35009766 18.92041016 C27.36662431 20.46646207 27.39387144 22.01243861 27.43212891 23.55810547 C27.48716157 25.79434583 27.50881095 28.02879685 27.5234375 30.265625 C27.54610687 30.9502179 27.56877625 31.63481079 27.59213257 32.34014893 C27.56591582 38.35406798 26.36348694 38.76381567 22 44 C14.74 44 7.48 44 0 44 C0 29.48 0 14.96 0 0 Z " fill="#444240" transform="translate(594,637)"/>
<path d="M0 0 C0.33 0 0.66 0 1 0 C1 20.79 1 41.58 1 63 C-8.9 63 -18.8 63 -29 63 C-27.46404527 58.39213581 -25.76756267 54.14357894 -23.69140625 49.78515625 C-23.36845078 49.10032669 -23.0454953 48.41549713 -22.7127533 47.70991516 C-21.6659805 45.49252713 -20.61434742 43.27748469 -19.5625 41.0625 C-18.84090194 39.53673642 -18.11954924 38.01085677 -17.3984375 36.48486328 C-11.63799051 24.30469068 -5.8392962 12.14256748 0 0 Z " fill="#FCC902" transform="translate(1074,829)"/>
<path d="M0 0 C3.93790783 -0.0807316 7.87417069 -0.14037469 11.8125 -0.1875 C13.49182617 -0.22520508 13.49182617 -0.22520508 15.20507812 -0.26367188 C16.27822266 -0.27333984 17.35136719 -0.28300781 18.45703125 -0.29296875 C19.9416687 -0.31653442 19.9416687 -0.31653442 21.45629883 -0.34057617 C24 0 24 0 25.8215332 1.2878418 C27.83878243 4.21864122 27.42989678 7.57200121 27.375 11 C27.38660156 11.72445312 27.39820313 12.44890625 27.41015625 13.1953125 C27.38109161 18.4463237 27.38109161 18.4463237 25.8215332 20.7121582 C23.29154176 22.50088691 21.53555129 22.34183415 18.45703125 22.29296875 C16.84731445 22.2784668 16.84731445 22.2784668 15.20507812 22.26367188 C14.08552734 22.23853516 12.96597656 22.21339844 11.8125 22.1875 C10.68134766 22.17396484 9.55019531 22.16042969 8.38476562 22.14648438 C5.58964118 22.11110305 2.79476111 22.05729579 0 22 C0 14.74 0 7.48 0 0 Z " fill="#46443F" transform="translate(735,637)"/>
<path d="M0 0 C3.75043155 -0.08087991 7.49912186 -0.14044597 11.25 -0.1875 C12.31347656 -0.21263672 13.37695312 -0.23777344 14.47265625 -0.26367188 C15.49746094 -0.27333984 16.52226563 -0.28300781 17.578125 -0.29296875 C18.52075195 -0.3086792 19.46337891 -0.32438965 20.43457031 -0.34057617 C23.49550394 0.06578112 24.83680784 0.8140538 27 3 C27.40738428 5.82772621 27.56016044 8.18248606 27.5 11 C27.51546875 11.72445312 27.5309375 12.44890625 27.546875 13.1953125 C27.50782317 18.48683517 27.50782317 18.48683517 25.30566406 20.7121582 C22.50745284 22.27511502 20.76946718 22.34615779 17.578125 22.29296875 C16.04091797 22.2784668 16.04091797 22.2784668 14.47265625 22.26367188 C13.40917969 22.23853516 12.34570312 22.21339844 11.25 22.1875 C9.63158203 22.16719727 9.63158203 22.16719727 7.98046875 22.14648438 C5.32009879 22.11116973 2.65998587 22.05736391 0 22 C0 14.74 0 7.48 0 0 Z " fill="#454340" transform="translate(559,747)"/>
<path d="M0 0 C3.42853664 1.93786854 4.69541321 3.17582398 6.0625 6.875 C5.97734257 11.13287126 4.88670712 12.89678985 2 16 C-1.88083424 17.19953058 -4.00622133 17.3754275 -7.8125 15.9375 C-10.62694481 13.44470603 -11.33650807 11.6860663 -12 8 C-10.21403674 1.01850724 -7.13279984 -0.86085515 0 0 Z " fill="#414042" transform="translate(603,326)"/>
</svg>
